<svg class="img-fluid" id="outputsvg" xmlns="http://www.w3.org/2000/svg" style="transform: matrix(1, 0, 0, 1, 0, 0); transform-origin: 50% 50%; cursor: move; max-height: none; transition: transform 200ms ease-in-out;" width="1080" height="1080" viewBox="0 0 10800 10800"><g id="l48XAgceJTFPYnDD24ZFgEI" fill="rgb(252,202,65)" style="transform: none;"><g style="transform: none;"><path id="p4W5368fU" d="M740 6031 l0 -4028 51 -7 c29 -4 553 -6 1166 -5 613 1 1115 0 1116 -2 8 -11 77 -160 77 -165 0 -11 134 -350 146 -369 11 -19 28 -61 127 -315 24 -63 54 -135 66 -160 11 -25 38 -88 58 -140 l38 -95 1816 -3 1815 -2 46 112 c25 62 60 147 78 188 17 41 56 140 87 220 30 80 64 163 75 185 19 39 50 115 123 308 29 74 91 220 101 235 1 2 508 3 1127 2 618 0 1143 2 1166 6 l41 7 0 4028 0 4029 -4660 0 -4660 0 0 -4029z m5070 2544 c58 -9 116 -18 130 -21 72 -15 197 -47 215 -54 11 -5 74 -27 140 -48 178 -59 266 -96 380 -162 22 -13 63 -36 92 -51 211 -112 518 -362 676 -549 40 -47 74 -87 77 -90 36 -35 180 -234 180 -249 0 -4 15 -28 34 -52 68 -88 208 -387 269 -574 57 -176 122 -502 137 -693 31 -397 -73 -949 -249 -1315 -33 -71 -61 -130 -61 -132 0 -10 -91 -159 -160 -261 -219 -324 -566 -653 -855 -810 -38 -21 -83 -47 -100 -59 -40 -29 -242 -125 -295 -140 -25 -7 -136 -48 -175 -65 -11 -5 -29 -10 -40 -13 -11 -2 -64 -16 -117 -31 -476 -128 -1091 -108 -1538 49 -238 83 -206 70 -360 143 -41 19 -91 45 -110 57 -19 12 -75 46 -125 75 -216 130 -491 367 -660 570 -260 313 -461 700 -546 1049 -44 181 -77 373 -89 508 -28 321 34 779 154 1130 49 141 187 425 252 516 19 26 34 50 34 53 0 12 114 168 192 263 192 232 491 484 733 616 39 21 93 52 120 67 28 16 73 39 100 52 71 33 322 126 341 126 8 0 27 6 42 14 68 34 307 81 487 96 151 13 572 4 695 -15z"></path><path id="p14TmC9WP4" d="M5255 7994 c-170 -12 -404 -59 -527 -104 -176 -66 -357 -148 -415 -189 -16 -10 -53 -35 -83 -55 -200 -130 -337 -255 -493 -451 -214 -268 -361 -576 -421 -885 -9 -47 -21 -98 -27 -115 -5 -16 -14 -103 -21 -193 -12 -167 -1 -417 22 -488 5 -16 19 -74 31 -129 53 -249 159 -491 316 -727 112 -168 334 -398 485 -504 46 -32 101 -72 123 -89 37 -28 196 -110 355 -183 95 -44 215 -78 475 -134 96 -20 577 -17 680 5 214 46 349 83 428 120 28 13 81 37 117 53 36 15 81 37 100 48 19 11 60 33 90 49 30 17 73 44 95 62 22 17 72 53 110 80 79 55 261 229 332 319 27 32 64 77 83 100 35 40 162 243 176 281 4 11 17 36 29 55 21 34 84 186 110 265 32 98 56 200 98 415 15 81 14 472 -2 545 -7 33 -17 78 -21 100 -24 122 -32 158 -56 235 -53 171 -92 267 -159 385 -74 133 -106 185 -147 237 -23 31 -63 83 -87 115 -61 79 -259 272 -350 340 -185 138 -363 237 -551 303 -36 13 -69 27 -75 31 -18 13 -199 57 -325 78 -120 21 -380 34 -495 25z"></path></g></g><g id="l22pyp8rlx8PXJco9QW0Zn0" fill="rgb(252,203,30)" style="transform: none;"><g style="transform: none;"><path id="p1DkRjqsND" d="M741 10028 c0 -31 1 -32 11 -10 6 12 15 22 20 22 4 0 8 5 8 10 0 6 -9 10 -20 10 -16 0 -20 -6 -19 -32z"></path><path id="phaW7Cm2H" d="M780 9980 c0 -25 8 -25 40 0 l25 20 -32 0 c-26 0 -33 -4 -33 -20z"></path><path id="pazseWbKV" d="M4457 8594 c-11 -12 3 -24 29 -24 15 0 24 6 24 15 0 15 -40 21 -53 9z"></path><path id="p1B1yBlxBY" d="M5810 8580 c-12 -8 -9 -10 13 -10 15 0 27 5 27 10 0 13 -20 13 -40 0z"></path><path id="pe8L9voIv" d="M4835 8560 c-13 -5 -14 -9 -5 -9 8 0 24 4 35 9 13 5 14 9 5 9 -8 0 -24 -4 -35 -9z"></path><path id="pOvUEphLq" d="M4550 8550 c0 -5 7 -10 15 -10 8 0 15 5 15 10 0 6 -7 10 -15 10 -8 0 -15 -4 -15 -10z"></path><path id="piqpwiATR" d="M6073 8553 c-20 -7 -15 -23 7 -23 11 0 20 4 20 9 0 13 -12 19 -27 14z"></path><path id="p14ZvOkzb2" d="M4382 8538 c3 -7 13 -15 23 -17 10 -2 25 -9 33 -17 15 -15 31 -17 56 -8 29 11 17 24 -23 24 -22 0 -44 6 -51 15 -15 18 -43 20 -38 3z"></path><path id="pHB4U2SvE" d="M6240 8510 c0 -5 6 -10 14 -10 8 0 18 5 21 10 3 6 -3 10 -14 10 -12 0 -21 -4 -21 -10z"></path><path id="p9YGsah3H" d="M6314 8495 c24 -18 39 -20 34 -2 -3 6 -15 13 -29 15 -23 2 -23 2 -5 -13z"></path><path id="p10NHpnwOY" d="M4377 8474 c-14 -14 -7 -35 11 -32 9 2 17 10 17 17 0 16 -18 25 -28 15z"></path><path id="p6XaHciwl" d="M6370 8455 c7 -8 19 -15 26 -15 8 0 14 7 14 15 0 10 -10 15 -26 15 -22 0 -25 -2 -14 -15z"></path><path id="pZ5TsylAY" d="M4070 8401 c0 -11 39 -25 47 -18 3 3 2 10 -2 16 -8 13 -45 15 -45 2z"></path><path id="p5BslhSmI" d="M6560 8400 c-12 -8 -12 -10 3 -16 21 -8 35 2 21 16 -5 5 -15 6 -24 0z"></path><path id="p1CzRvZwn3" d="M4148 8373 c-10 -2 -18 -11 -18 -19 0 -21 18 -17 30 6 6 11 9 19 8 19 -2 -1 -11 -3 -20 -6z"></path><path id="pYZbCBq9H" d="M6714 8369 c-8 -14 11 -33 25 -25 11 7 4 36 -9 36 -5 0 -12 -5 -16 -11z"></path><path id="pcceTDudN" d="M4070 8310 c0 -5 -7 -10 -15 -10 -8 0 -15 -4 -15 -10 0 -13 17 -13 25 0 4 6 22 8 43 4 l37 -6 -29 16 c-33 18 -46 20 -46 6z"></path><path id="pGnw1nI0k" d="M6655 8311 c-6 -11 1 -16 40 -25 29 -7 29 -7 11 13 -20 22 -41 27 -51 12z"></path><path id="psyaKwEou" d="M3775 8251 c-7 -12 12 -24 25 -16 11 7 4 25 -10 25 -5 0 -11 -4 -15 -9z"></path><path id="pVVvx3ZEt" d="M3697 8224 c-9 -9 4 -34 18 -34 14 0 27 25 18 34 -4 3 -12 6 -18 6 -6 0 -14 -3 -18 -6z"></path><path id="pYNyNQf3Y" d="M3863 8216 c-25 -12 -29 -21 -12 -32 6 -3 15 -1 19 5 4 7 17 10 32 6 18 -5 27 -2 31 9 4 10 1 16 -7 16 -8 0 -20 2 -28 4 -7 2 -23 -2 -35 -8z"></path><path id="pMBFwFUUh" d="M6861 8211 c-9 -6 -10 -11 -2 -15 6 -4 11 -2 11 3 0 16 21 13 42 -6 10 -9 21 -13 25 -9 18 17 -52 43 -76 27z"></path><path id="pVjWYnyr6" d="M7052 8209 c2 -6 8 -10 13 -10 5 0 11 4 13 10 2 6 -4 11 -13 11 -9 0 -15 -5 -13 -11z"></path><path id="p12ZDznCFz" d="M6980 8176 c0 -26 63 -75 74 -58 5 8 -58 72 -70 72 -2 0 -4 -6 -4 -14z"></path><path id="plA5Mno5D" d="M3730 8145 c-7 -9 -10 -18 -7 -21 9 -9 45 6 51 21 7 20 -28 20 -44 0z"></path><path id="pqcY5x3QQ" d="M3805 8119 c-12 -19 3 -22 27 -5 l22 16 -21 0 c-12 0 -25 -5 -28 -11z"></path><path id="pGChQpD8b" d="M3530 8056 c0 -9 7 -16 16 -16 17 0 14 22 -4 28 -7 2 -12 -3 -12 -12z"></path><path id="pqLf1r2zs" d="M7209 8054 c-12 -14 -11 -16 5 -13 11 2 21 10 24 17 5 17 -13 15 -29 -4z"></path><path id="psg4hJWGd" d="M3630 8035 c0 -9 5 -15 11 -13 6 2 11 8 11 13 0 5 -5 11 -11 13 -6 2 -11 -4 -11 -13z"></path><path id="pZhW6kQkN" d="M3580 8005 c0 -8 5 -15 10 -15 6 0 10 7 10 15 0 8 -4 15 -10 15 -5 0 -10 -7 -10 -15z"></path><path id="p197P7l6Vp" d="M5620 7980 c0 -5 7 -10 15 -10 8 0 15 5 15 10 0 6 -7 10 -15 10 -8 0 -15 -4 -15 -10z"></path><path id="p1HqiYLbbM" d="M7187 7984 c-13 -13 -7 -24 14 -24 11 0 19 5 17 12 -5 14 -22 21 -31 12z"></path><path id="pQA4CpZnK" d="M3461 7899 c11 -22 29 -25 29 -5 0 7 -9 16 -20 19 -17 4 -18 2 -9 -14z"></path><path id="pjWyAJ9De" d="M5896 7871 c-7 -11 18 -33 27 -24 4 3 7 12 7 20 0 15 -26 18 -34 4z"></path><path id="pjtsZGWNc" d="M4716 7851 c-7 -11 22 -23 35 -15 5 3 7 10 4 15 -8 12 -32 12 -39 0z"></path><path id="p1HlQb6UyD" d="M4680 7790 c0 -13 54 -22 84 -14 15 3 24 9 21 12 -9 9 -105 11 -105 2z"></path><path id="pykYwnUEp" d="M6028 7777 c31 -7 46 -7 54 1 9 9 -1 12 -42 11 l-55 -1 43 -11z"></path><path id="pXx8q45dz" d="M3232 7735 c2 -20 11 -33 26 -40 12 -5 22 -15 22 -22 0 -7 5 -13 10 -13 16 0 12 18 -10 42 -10 13 -26 32 -35 43 -15 19 -15 19 -13 -10z"></path><path id="pgewV76Tu" d="M3337 7739 c-10 -11 -16 -24 -12 -27 8 -9 38 24 34 37 -3 7 -12 3 -22 -10z"></path><path id="p1CuiAGdRo" d="M7545 7749 c-10 -15 3 -25 16 -12 7 7 7 13 1 17 -6 3 -14 1 -17 -5z"></path><path id="pklKN2nB0" d="M6418 7723 c-31 -8 -19 -23 17 -23 36 0 47 13 19 24 -9 3 -16 5 -17 5 -1 -1 -10 -3 -19 -6z"></path><path id="pyZSWhyoG" d="M7442 7718 c6 -18 28 -21 28 -4 0 9 -7 16 -16 16 -9 0 -14 -5 -12 -12z"></path><path id="pKZtacLL6" d="M7540 7665 c0 -8 5 -15 10 -15 6 0 10 7 10 15 0 8 -4 15 -10 15 -5 0 -10 -7 -10 -15z"></path><path id="p16ocTr9T5" d="M4330 7662 c0 -4 9 -13 21 -20 19 -12 19 -11 9 8 -10 19 -30 28 -30 12z"></path><path id="pXwgQq9Hc" d="M6416 7645 c-10 -8 -15 -19 -10 -26 5 -9 10 -7 20 6 7 10 20 15 28 12 10 -4 13 -1 9 9 -7 18 -23 18 -47 -1z"></path><path id="p16JTbLwzy" d="M7502 7629 c2 -6 8 -10 13 -10 5 0 11 4 13 10 2 6 -4 11 -13 11 -9 0 -15 -5 -13 -11z"></path><path id="pn9ObhK24" d="M6490 7605 c-7 -9 -11 -18 -8 -20 3 -3 11 1 18 10 7 9 11 18 8 20 -3 3 -11 -1 -18 -10z"></path><path id="phoUrf4Xb" d="M4280 7595 c0 -9 5 -15 11 -13 6 2 11 8 11 13 0 5 -5 11 -11 13 -6 2 -11 -4 -11 -13z"></path><path id="p1DvDl2Ioz" d="M7703 7573 c-19 -7 -17 -63 2 -63 10 0 15 11 15 35 0 19 -1 35 -2 34 -2 0 -9 -3 -15 -6z"></path><path id="p19xy9CB04" d="M3060 7533 c0 -26 16 -47 29 -39 6 4 11 18 11 32 0 17 -5 24 -20 24 -12 0 -20 -7 -20 -17z"></path><path id="pmlnYzojE" d="M4152 7539 c2 -7 10 -15 17 -17 8 -3 12 1 9 9 -2 7 -10 15 -17 17 -8 3 -12 -1 -9 -9z"></path><path id="pFNFUp1n3" d="M6603 7535 c-3 -9 -3 -18 0 -21 9 -9 48 16 42 27 -9 14 -35 11 -42 -6z"></path><path id="pisgh14ZI" d="M7620 7523 c0 -5 6 -18 14 -29 17 -22 35 -11 20 13 -12 19 -34 29 -34 16z"></path><path id="p1XeSNW8A" d="M6760 7492 c-8 -3 -19 -11 -23 -19 -7 -12 -12 -12 -32 1 -20 13 -29 14 -61 2 -21 -7 -40 -18 -42 -24 -5 -17 34 -15 52 3 8 8 21 15 29 15 8 0 20 -7 27 -15 17 -20 39 -19 47 3 4 9 11 20 17 24 14 9 5 16 -14 10z"></path><path id="psg5CMcU0" d="M4041 7467 c-6 -8 -8 -17 -4 -20 7 -8 33 11 33 24 0 13 -16 11 -29 -4z"></path><path id="pvRBIiXgU" d="M4130 7465 c-7 -9 -10 -18 -7 -21 11 -11 57 6 57 21 0 20 -34 19 -50 0z"></path><path id="pFVjfiYJl" d="M3980 7412 c0 -28 10 -52 22 -52 14 0 5 63 -9 68 -8 2 -13 -5 -13 -16z"></path><path id="pkTrHOd2x" d="M6776 7385 c-10 -28 -7 -45 9 -45 22 0 30 29 13 47 -14 13 -16 13 -22 -2z"></path><path id="pzdNOWphI" d="M3895 7380 c-8 -13 -1 -24 14 -19 6 3 7 10 2 18 -6 10 -10 10 -16 1z"></path><path id="pFTCec7bB" d="M7730 7375 c-10 -12 -10 -15 4 -15 9 0 16 7 16 15 0 8 -2 15 -4 15 -2 0 -9 -7 -16 -15z"></path><path id="pkwIdVB7b" d="M6841 7361 c-7 -5 -10 -14 -7 -20 11 -17 23 -13 29 9 6 22 0 25 -22 11z"></path><path id="pozHTOZJF" d="M4020 7300 c0 -13 5 -20 13 -17 6 2 12 10 12 17 0 7 -6 15 -12 18 -8 2 -13 -5 -13 -18z"></path><path id="picVcqhXN" d="M6856 7311 c-4 -5 7 -19 23 -30 16 -12 32 -17 35 -12 4 5 -7 19 -23 30 -16 12 -32 17 -35 12z"></path><path id="pKt1Huhe5" d="M3880 7295 c0 -8 9 -15 20 -15 11 0 20 7 20 15 0 8 -9 15 -20 15 -11 0 -20 -7 -20 -15z"></path><path id="pz00OgnZt" d="M3967 7264 c-9 -10 2 -24 19 -24 8 0 14 7 14 15 0 15 -21 21 -33 9z"></path><path id="pK8vzw5mi" d="M6780 7261 c0 -12 28 -22 35 -12 3 5 -2 12 -11 15 -21 8 -24 8 -24 -3z"></path><path id="p10qaWzrHD" d="M2980 7230 c0 -11 7 -20 15 -20 8 0 19 9 25 20 9 18 8 20 -15 20 -18 0 -25 -5 -25 -20z"></path><path id="pgilyrKSU" d="M6936 7222 c-5 -8 -4 -18 3 -25 6 -6 11 -19 11 -29 0 -10 7 -18 15 -18 8 0 15 9 15 20 0 11 -6 20 -14 20 -8 0 -16 10 -18 23 -2 16 -5 19 -12 9z"></path><path id="p11Nyl9s2r" d="M3825 7189 c-9 -17 -14 -33 -12 -35 6 -6 47 45 47 57 0 20 -21 7 -35 -22z"></path><path id="pTLctxC5Q" d="M2940 7184 c0 -3 7 -12 16 -21 11 -12 18 -13 27 -4 8 8 7 11 -6 11 -9 0 -17 5 -17 10 0 6 -4 10 -10 10 -5 0 -10 -3 -10 -6z"></path><path id="p1BXqAiixM" d="M7073 7163 c-18 -6 -4 -33 18 -33 10 0 19 4 19 9 0 13 -24 29 -37 24z"></path><path id="pXgRog97T" d="M7885 7127 c-4 -10 -5 -21 -1 -24 10 -10 18 4 13 24 -4 17 -4 17 -12 0z"></path><path id="pWud4cwwz" d="M2884 7105 c-6 -23 2 -63 10 -54 2 2 6 21 9 42 6 41 -9 51 -19 12z"></path><path id="p1DMu45AWb" d="M7137 7043 c-11 -10 -8 -33 4 -33 11 0 39 24 39 34 0 8 -35 7 -43 -1z"></path><path id="pwyBOlgbL" d="M3642 6999 c2 -7 10 -15 17 -17 8 -3 12 1 9 9 -2 7 -10 15 -17 17 -8 3 -12 -1 -9 -9z"></path><path id="pPh1bi3lk" d="M3620 6931 c0 -10 9 -21 20 -24 22 -6 27 12 8 31 -17 17 -28 15 -28 -7z"></path><path id="p1jqpdQub" d="M7137 6943 c-11 -10 -8 -43 3 -43 15 0 24 30 13 41 -5 5 -12 6 -16 2z"></path><path id="pLAfbVWSz" d="M2780 6859 c0 -24 23 -21 28 4 2 10 -3 17 -12 17 -10 0 -16 -9 -16 -21z"></path><path id="pTTcxOfCo" d="M7975 6869 c-4 -6 -5 -13 -2 -16 7 -7 27 6 27 18 0 12 -17 12 -25 -2z"></path><path id="pu31pVNhA" d="M8077 6836 c-4 -10 -5 -21 -2 -24 9 -9 17 6 13 25 -3 17 -4 17 -11 -1z"></path><path id="p16wrKXAYH" d="M3487 6817 c-11 -29 -9 -43 4 -30 6 6 9 19 7 29 -3 18 -4 18 -11 1z"></path><path id="p15VwJ23Ca" d="M7245 6767 c-4 -10 -5 -21 -1 -24 10 -10 18 4 13 24 -4 17 -4 17 -12 0z"></path><path id="pC4JXEeu2" d="M7312 6762 c-35 -35 -27 -56 11 -27 10 7 17 22 15 32 -3 16 -5 16 -26 -5z"></path><path id="p2bpPueu5" d="M3470 6752 c0 -21 25 -48 33 -35 3 4 -3 19 -14 32 -18 22 -19 22 -19 3z"></path><path id="pB03GtyAC" d="M8000 6758 c1 -19 27 -51 34 -40 9 14 -5 52 -20 52 -8 0 -14 -6 -14 -12z"></path><path id="p16wt4IHgL" d="M3460 6661 c0 -6 11 -22 24 -36 29 -31 45 -16 22 20 -16 24 -46 34 -46 16z"></path><path id="p11J75LKr5" d="M7265 6639 c-8 -23 7 -45 24 -35 6 4 11 18 11 32 0 30 -26 32 -35 3z"></path><path id="pOKhk86Ud" d="M7378 6623 c-24 -6 -23 -23 2 -23 11 0 20 7 20 15 0 8 -1 14 -2 14 -2 -1 -11 -3 -20 -6z"></path><path id="pZ4B6lnTN" d="M8050 6581 c0 -12 5 -21 10 -21 6 0 10 6 10 14 0 8 -4 18 -10 21 -5 3 -10 -3 -10 -14z"></path><path id="pRKP4xUcB" d="M2691 6478 c-1 -21 4 -28 17 -28 11 0 13 3 6 8 -7 4 -14 16 -17 27 -4 15 -5 14 -6 -7z"></path><path id="pzQ9CExlj" d="M3346 6423 c-11 -11 -6 -23 9 -23 8 0 15 4 15 9 0 13 -16 22 -24 14z"></path><path id="pLBiJjV5c" d="M3340 6255 c0 -8 7 -15 15 -15 8 0 15 4 15 9 0 5 -7 11 -15 15 -9 3 -15 0 -15 -9z"></path><path id="p16LHgy7vk" d="M7484 6135 c-8 -31 -3 -38 20 -29 20 8 22 54 1 54 -8 0 -17 -11 -21 -25z"></path><path id="pw8pi37va" d="M8170 6089 c0 -11 5 -17 10 -14 6 3 10 13 10 21 0 8 -4 14 -10 14 -5 0 -10 -9 -10 -21z"></path><path id="pSkJyJPol" d="M3272 6030 c0 -19 2 -27 5 -17 2 9 2 25 0 35 -3 9 -5 1 -5 -18z"></path><path id="pqJSRbdJP" d="M7500 6035 c0 -16 6 -25 15 -25 9 0 15 9 15 25 0 16 -6 25 -15 25 -9 0 -15 -9 -15 -25z"></path><path id="p1xNNIe5B" d="M3333 5985 c0 -22 2 -30 4 -17 2 12 2 30 0 40 -3 9 -5 -1 -4 -23z"></path><path id="pUsvcxCR4" d="M7443 5950 c0 -25 2 -35 4 -22 2 12 2 32 0 45 -2 12 -4 2 -4 -23z"></path><path id="p19susLoyK" d="M7451 5794 c-1 -28 -4 -66 -7 -83 -4 -19 -2 -31 4 -31 15 0 23 89 13 130 -9 34 -9 34 -10 -16z"></path><path id="pC7JqqQl7" d="M3271 5686 c-1 -30 3 -46 8 -40 5 5 6 27 1 49 l-8 40 -1 -49z"></path><path id="p11Qdi36Ro" d="M8143 5675 c0 -27 2 -38 4 -22 2 15 2 37 0 50 -2 12 -4 0 -4 -28z"></path><path id="p109VQyV8x" d="M8222 5600 c0 -19 2 -27 5 -17 2 9 2 25 0 35 -3 9 -5 1 -5 -18z"></path><path id="pSjRNdvXw" d="M2560 5590 c0 -18 4 -29 10 -25 6 3 10 15 10 25 0 10 -4 22 -10 25 -6 4 -10 -7 -10 -25z"></path><path id="py1IM757B" d="M8167 5548 c-6 -19 4 -49 14 -42 12 7 12 54 0 54 -5 0 -11 -6 -14 -12z"></path><path id="pgK5yWEiu" d="M8241 5518 c-1 -20 4 -40 9 -43 12 -7 12 19 0 55 -7 22 -8 21 -9 -12z"></path><path id="p1DDyNnHQb" d="M2570 5427 c0 -23 4 -36 10 -32 13 8 13 35 0 55 -7 11 -10 5 -10 -23z"></path><path id="pr9Sf6dNM" d="M7410 5225 c0 -8 7 -15 15 -15 8 0 15 7 15 15 0 8 -7 15 -15 15 -8 0 -15 -7 -15 -15z"></path><path id="pfaUDsoIC" d="M3457 5223 c-4 -3 -7 -19 -7 -35 0 -15 -5 -37 -12 -47 -12 -20 -5 -51 12 -51 5 0 10 18 10 39 0 22 5 43 10 46 6 3 10 17 10 31 0 23 -10 31 -23 17z"></path><path id="p14eCl66cP" d="M3380 5211 c0 -17 18 -21 24 -6 3 9 0 15 -9 15 -8 0 -15 -4 -15 -9z"></path><path id="pjRcXTA4e" d="M2712 5158 c3 -7 13 -15 22 -16 12 -3 17 1 14 10 -3 7 -13 15 -22 16 -12 3 -17 -1 -14 -10z"></path><path id="pZwaG6b9c" d="M7308 5124 c-5 -26 2 -64 13 -64 12 0 11 51 0 69 -7 11 -10 10 -13 -5z"></path><path id="pOr0CIcBk" d="M8074 5069 c-3 -6 -1 -16 5 -22 8 -8 11 -5 11 11 0 24 -5 28 -16 11z"></path><path id="pQolJLmIM" d="M2715 5010 c-8 -13 4 -32 16 -25 12 8 12 35 0 35 -6 0 -13 -4 -16 -10z"></path><path id="p1CbFINA3s" d="M3520 4990 c0 -16 5 -30 10 -30 6 0 10 14 10 30 0 17 -4 30 -10 30 -5 0 -10 -13 -10 -30z"></path><path id="pSFyPmNwv" d="M7305 4997 c-4 -10 -5 -21 -1 -24 10 -10 18 4 13 24 -4 17 -4 17 -12 0z"></path><path id="paxFxWKP4" d="M8035 5000 c-10 -15 16 -113 26 -103 10 10 0 113 -12 113 -4 0 -11 -5 -14 -10z"></path><path id="p1DhpLVI6h" d="M7240 4980 c0 -11 5 -20 10 -20 6 0 10 9 10 20 0 11 -4 20 -10 20 -5 0 -10 -9 -10 -20z"></path><path id="pyMUUfZBy" d="M2766 4846 c5 -36 2 -52 -15 -80 -13 -20 -20 -40 -16 -46 11 -18 23 -11 30 17 3 15 10 30 15 33 14 9 24 60 11 60 -6 0 -11 11 -11 24 0 14 -4 28 -10 31 -6 4 -8 -10 -4 -39z"></path><path id="piv9xcHkU" d="M3634 4879 c-10 -17 13 -36 27 -22 12 12 4 33 -11 33 -5 0 -12 -5 -16 -11z"></path><path id="poqgHwO9d" d="M7102 4873 c5 -26 38 -29 38 -4 0 15 -6 21 -21 21 -14 0 -19 -5 -17 -17z"></path><path id="p9lpFrVrx" d="M8012 4850 c0 -19 2 -27 5 -17 2 9 2 25 0 35 -3 9 -5 1 -5 -18z"></path><path id="pAttK4pdj" d="M3564 4856 c-6 -16 11 -46 27 -46 15 0 10 37 -6 50 -12 10 -16 9 -21 -4z"></path><path id="ptXb9cVWA" d="M2687 4835 c-4 -8 -2 -17 4 -20 5 -4 7 -11 4 -16 -4 -5 -1 -9 4 -9 6 0 11 14 11 30 0 31 -14 40 -23 15z"></path><path id="pMLDSE4NL" d="M7186 4843 c-12 -12 -6 -33 9 -33 8 0 15 6 15 14 0 17 -14 28 -24 19z"></path><path id="pmoXtvGgt" d="M3670 4801 c0 -5 6 -14 14 -20 16 -13 32 2 21 19 -8 12 -35 13 -35 1z"></path><path id="pPwtkeAp5" d="M8036 4757 c-5 -15 -6 -31 -2 -34 11 -11 18 5 14 34 l-4 28 -8 -28z"></path><path id="pjYR9WPMo" d="M7956 4744 c-8 -29 -3 -39 13 -29 13 8 15 55 2 55 -5 0 -12 -12 -15 -26z"></path><path id="pRKbN2R34" d="M2815 4740 c-7 -12 2 -30 16 -30 12 0 12 27 0 35 -5 3 -12 1 -16 -5z"></path><path id="pDKMsxzVR" d="M3620 4731 c0 -12 6 -21 16 -21 9 0 14 7 12 17 -5 25 -28 28 -28 4z"></path><path id="pU034mWJg" d="M2903 4683 c-20 -7 -15 -23 7 -23 11 0 20 4 20 9 0 13 -12 19 -27 14z"></path><path id="p1Bs1b3p3J" d="M7864 4625 c-7 -16 20 -65 35 -65 5 0 4 18 -1 40 -11 41 -24 51 -34 25z"></path><path id="psauzKZ7l" d="M3660 4616 c0 -2 7 -9 15 -16 12 -10 15 -10 15 4 0 9 -7 16 -15 16 -8 0 -15 -2 -15 -4z"></path><path id="prDE7xf2Z" d="M7070 4600 c0 -13 7 -20 20 -20 18 0 19 3 10 20 -6 11 -15 20 -20 20 -6 0 -10 -9 -10 -20z"></path><path id="pAHWUKM4S" d="M2927 4554 c-8 -8 -10 -54 -2 -54 2 0 15 11 29 25 14 14 21 25 16 25 -4 0 -15 2 -22 5 -8 3 -17 2 -21 -1z"></path><path id="pitLIcoiD" d="M7834 4547 c-6 -17 2 -37 16 -37 15 0 19 29 5 40 -12 10 -16 9 -21 -3z"></path><path id="pKIROjmK7" d="M2855 4507 c-8 -31 0 -61 15 -52 12 8 13 45 1 64 -8 12 -11 9 -16 -12z"></path><path id="pIoMHT01f" d="M7904 4507 c-7 -20 -2 -47 11 -50 14 -3 19 43 6 56 -7 7 -12 6 -17 -6z"></path><path id="p12Mwqq68R" d="M2960 4451 c0 -12 6 -21 15 -21 8 0 15 4 15 9 0 5 -7 14 -15 21 -13 10 -15 9 -15 -9z"></path><path id="p1FBVyHQhq" d="M6930 4456 c0 -8 6 -17 13 -20 10 -5 10 -7 0 -12 -14 -6 -18 -34 -5 -34 5 0 17 9 27 20 10 11 13 20 8 20 -6 0 -13 9 -16 20 -6 23 -27 27 -27 6z"></path><path id="p1FZF4ldXD" d="M3816 4441 c-3 -5 0 -14 8 -20 10 -9 15 -8 19 3 9 22 -15 37 -27 17z"></path><path id="pXVC84Y2y" d="M7830 4440 c0 -6 7 -13 15 -16 8 -4 15 -17 15 -30 0 -15 6 -24 15 -24 22 0 18 26 -9 54 -25 28 -36 32 -36 16z"></path><path id="pDjZ5DrRT" d="M6766 4364 c-4 -9 -4 -19 -2 -22 10 -9 36 8 36 23 0 20 -26 19 -34 -1z"></path><path id="pNm7YH9Lp" d="M3980 4355 c0 -8 7 -15 15 -15 8 0 15 7 15 15 0 8 -7 15 -15 15 -8 0 -15 -7 -15 -15z"></path><path id="p9qJpXXRZ" d="M7670 4322 c0 -15 25 -62 33 -62 10 0 9 2 -9 38 -15 31 -24 40 -24 24z"></path><path id="p5ofgNhXv" d="M3062 4300 c10 -15 10 -22 0 -32 -14 -14 -16 -38 -4 -38 5 0 14 11 20 25 9 20 9 30 0 45 -7 11 -16 20 -20 20 -5 0 -3 -9 4 -20z"></path><path id="p17dBezeqr" d="M4008 4258 c12 -12 25 -19 28 -15 4 4 -1 14 -12 22 -29 22 -41 18 -16 -7z"></path><path id="pWShuh6WM" d="M6740 4265 c-10 -12 -9 -16 3 -21 20 -7 37 3 37 22 0 18 -24 18 -40 -1z"></path><path id="pYBVNJV29" d="M3157 4249 c-20 -11 -23 -39 -4 -39 24 0 40 17 31 33 -7 12 -14 13 -27 6z"></path><path id="pXa8SCOnO" d="M6673 4185 c-8 -23 2 -28 27 -15 18 10 20 14 9 21 -20 13 -29 11 -36 -6z"></path><path id="pES5Lfxlj" d="M7567 4184 c-4 -4 -7 -14 -7 -23 0 -11 3 -12 11 -4 6 6 10 16 7 23 -2 6 -7 8 -11 4z"></path><path id="p60X4MCR7" d="M4144 4165 c-10 -26 13 -42 32 -23 15 15 15 17 -5 27 -17 10 -22 9 -27 -4z"></path><path id="pAnJsaqcv" d="M6600 4156 c0 -22 29 -41 42 -28 9 9 7 16 -8 27 -24 18 -34 19 -34 1z"></path><path id="p1HiP4eIp1" d="M6539 4110 l-24 -20 30 2 c19 2 31 9 33 21 5 23 -10 22 -39 -3z"></path><path id="p18nd67aC2" d="M7512 4118 c-16 -16 -15 -28 3 -28 8 0 15 9 15 20 0 23 -2 24 -18 8z"></path><path id="p9XxC3oRK" d="M3195 4100 c-8 -13 12 -40 31 -40 20 0 17 14 -5 34 -13 12 -21 14 -26 6z"></path><path id="pDak7xhB9" d="M4255 4090 c10 -11 20 -18 23 -15 7 6 -18 35 -31 35 -5 0 -2 -9 8 -20z"></path><path id="pDhIS8dWP" d="M6503 4073 c-18 -7 -16 -23 2 -23 8 0 15 7 15 15 0 8 -1 15 -2 14 -2 0 -9 -3 -15 -6z"></path><path id="pRKlETwzi" d="M7531 4067 c-6 -8 -8 -17 -4 -20 7 -8 33 11 33 24 0 13 -16 11 -29 -4z"></path><path id="phMlYp4bJ" d="M3290 4033 c0 -17 56 -63 77 -63 26 0 27 3 11 29 -7 11 -19 17 -32 14 -15 -4 -17 -2 -8 5 11 7 8 11 -10 15 -30 9 -38 9 -38 0z"></path><path id="pfb18bMLt" d="M4493 4006 c17 -13 16 -15 -10 -34 -15 -11 -24 -24 -20 -28 4 -4 19 4 34 18 22 23 24 29 13 42 -7 9 -18 16 -24 16 -6 0 -3 -7 7 -14z"></path><path id="pWYZUSYW0" d="M6260 3982 c0 -17 38 -44 45 -32 4 6 -1 18 -11 25 -22 16 -34 19 -34 7z"></path><path id="p18lMRx3K2" d="M3250 3962 c0 -5 9 -17 20 -27 20 -18 20 -17 20 8 0 20 -5 27 -20 27 -11 0 -20 -4 -20 -8z"></path><path id="pLeNde0h7" d="M6239 3913 c-12 -15 -12 -16 4 -10 10 4 23 7 28 7 5 0 9 5 9 10 0 16 -26 12 -41 -7z"></path><path id="pMR16FROB" d="M3350 3891 c0 -5 13 -16 29 -24 25 -13 29 -13 24 -1 -9 23 -53 43 -53 25z"></path><path id="pBsjehceI" d="M3468 3893 c-22 -5 -23 -18 -2 -35 8 -7 24 -23 35 -34 19 -20 59 -23 59 -5 0 17 -76 77 -92 74z"></path><path id="plEnAsqSz" d="M4902 3871 c-11 -7 -10 -10 3 -15 25 -9 75 -7 75 3 0 19 -54 28 -78 12z"></path><path id="pWQg7ruby" d="M5823 3873 c-7 -2 -13 -9 -13 -14 0 -11 40 -12 58 0 22 14 -17 26 -45 14z"></path><path id="pya9R7nr4" d="M4855 3830 c-9 -15 3 -27 38 -35 17 -5 27 -3 27 4 0 6 -5 11 -12 11 -6 0 -19 7 -29 16 -12 11 -19 12 -24 4z"></path><path id="pnACq7kch" d="M5905 3820 c-3 -5 -15 -10 -26 -10 -10 0 -19 -4 -19 -10 0 -5 4 -10 10 -10 16 0 60 23 60 32 0 11 -17 10 -25 -2z"></path><path id="pCA5Ktlpu" d="M3407 3812 c-11 -17 33 -53 70 -58 33 -4 36 -3 20 8 -10 7 -31 23 -45 35 -29 24 -38 28 -45 15z"></path><path id="p84Vx0srO" d="M5020 3801 c0 -13 31 -18 60 -11 24 6 23 7 -9 13 -44 9 -51 9 -51 -2z"></path><path id="p4LPwnxf4" d="M5700 3800 c-21 -7 -19 -8 18 -9 23 -1 42 4 42 9 0 12 -24 12 -60 0z"></path><path id="pLYzNkEBG" d="M3650 3717 l-25 -11 28 -4 c32 -4 46 4 31 17 -5 5 -20 4 -34 -2z"></path><path id="plQ26nNKT" d="M3730 3606 c0 -16 28 -42 36 -33 7 6 -18 47 -28 47 -5 0 -8 -6 -8 -14z"></path><path id="pSWGai8eS" d="M7032 3598 c-16 -16 -15 -39 1 -32 7 2 13 13 14 24 2 23 1 24 -15 8z"></path><path id="p3KAcDYtg" d="M3929 3469 c43 -40 71 -45 71 -13 0 12 -6 15 -21 11 -14 -4 -28 2 -44 19 -12 13 -28 24 -35 24 -7 0 6 -18 29 -41z"></path><path id="pTGg3kHRc" d="M6857 3493 c-12 -12 -7 -22 8 -17 8 4 15 10 15 15 0 11 -14 12 -23 2z"></path><path id="p1IprNsRf" d="M6790 3446 c0 -7 9 -16 20 -19 11 -3 19 -11 18 -18 -2 -8 8 -15 22 -16 l25 -3 -22 16 c-13 9 -23 25 -23 35 0 12 -7 19 -20 19 -11 0 -20 -6 -20 -14z"></path><path id="phPyWCPQx" d="M3867 3434 c-13 -13 -7 -24 14 -24 11 0 19 5 17 12 -5 14 -22 21 -31 12z"></path><path id="p16GitxLEe" d="M6887 3434 c-13 -13 -7 -24 14 -24 11 0 19 5 17 12 -5 14 -22 21 -31 12z"></path><path id="pBZeA35ni" d="M4105 3420 c-3 -5 3 -10 14 -10 12 0 21 5 21 10 0 6 -6 10 -14 10 -8 0 -18 -4 -21 -10z"></path><path id="p1GxXLwsWn" d="M3915 3400 c-8 -12 20 -24 35 -15 6 3 8 11 5 16 -8 12 -32 12 -40 -1z"></path><path id="pIYgtvVTS" d="M4213 3343 c-18 -6 -16 -23 1 -23 17 0 30 16 19 23 -5 2 -14 2 -20 0z"></path><path id="p14SM3yYLR" d="M4317 3323 c-13 -12 -7 -22 25 -37 34 -18 53 -21 26 -5 -10 5 -18 19 -18 29 0 19 -20 27 -33 13z"></path><path id="p15tmgXu4T" d="M6443 3323 c-20 -8 -15 -23 7 -23 11 0 20 7 20 15 0 15 -6 17 -27 8z"></path><path id="pDsJNHeWO" d="M4211 3281 c-9 -6 -10 -11 -2 -15 13 -8 31 1 31 15 0 11 -11 11 -29 0z"></path><path id="puTGsG4Uk" d="M4285 3260 c-3 -5 3 -10 15 -10 12 0 18 5 15 10 -3 6 -10 10 -15 10 -5 0 -12 -4 -15 -10z"></path><path id="ppTqq5DmZ" d="M3140 2005 c0 -8 7 -15 15 -15 8 0 15 7 15 15 0 8 -7 15 -15 15 -8 0 -15 -7 -15 -15z"></path><path id="p1100YXYOU" d="M7610 2005 c0 -8 7 -15 15 -15 8 0 15 7 15 15 0 8 -7 15 -15 15 -8 0 -15 -7 -15 -15z"></path><path id="pvdEgDqSz" d="M7690 1980 c0 -11 7 -20 15 -20 8 0 15 6 15 14 0 8 -7 16 -15 20 -10 4 -15 -1 -15 -14z"></path><path id="p17vmmYneX" d="M3110 1956 c0 -9 7 -16 16 -16 9 0 14 5 12 12 -6 18 -28 21 -28 4z"></path><path id="p152vg0pez" d="M7653 1963 c-18 -7 -16 -23 2 -23 8 0 15 7 15 15 0 8 -1 15 -2 14 -2 0 -9 -3 -15 -6z"></path><path id="pUoMk4c23" d="M3146 1911 c-9 -14 4 -41 20 -41 8 0 14 10 14 25 0 25 -23 35 -34 16z"></path><path id="pnrkW4Wu4" d="M7600 1894 c0 -31 23 -28 28 4 2 15 -2 22 -12 22 -11 0 -16 -9 -16 -26z"></path><path id="pTOw4byCr" d="M3216 1683 c-12 -12 -6 -33 9 -33 8 0 15 6 15 14 0 17 -14 28 -24 19z"></path><path id="p96GzoA8C" d="M7542 1668 c3 -7 15 -15 28 -16 21 -4 22 -2 7 12 -19 19 -40 21 -35 4z"></path><path id="pcihhKDdz" d="M7410 1590 c0 -16 5 -30 10 -30 6 0 10 14 10 30 0 17 -4 30 -10 30 -5 0 -10 -13 -10 -30z"></path><path id="piiEhkNsx" d="M3350 1585 c0 -14 5 -25 10 -25 6 0 10 11 10 25 0 14 -4 25 -10 25 -5 0 -10 -11 -10 -25z"></path><path id="p77DnVKZ4" d="M3307 1532 c-20 -4 -20 -33 0 -39 13 -5 38 34 26 40 -5 2 -16 2 -26 -1z"></path><path id="pb1iUpEeR" d="M7443 1527 c-8 -14 14 -30 31 -24 23 9 19 33 -5 33 -11 0 -23 -4 -26 -9z"></path><path id="pCY9xevsT" d="M3412 1333 c13 -27 27 -61 32 -75 7 -22 36 -24 36 -2 0 17 -50 84 -63 84 -5 0 -7 -3 -5 -7z"></path><path id="pnTTKYATc" d="M7313 1270 c-19 -21 -33 -48 -33 -64 0 -34 18 -33 30 2 6 15 20 44 31 65 26 47 13 46 -28 -3z"></path><path id="pmPITJri6" d="M7375 1220 c-21 -40 -19 -49 7 -42 12 3 17 7 10 10 -17 5 -15 22 2 22 8 0 17 7 20 16 8 22 8 24 -9 24 -8 0 -21 -13 -30 -30z"></path><path id="pwI9KOAqG" d="M3477 1184 c-13 -13 -7 -41 13 -64 l20 -23 -6 34 c-8 43 -18 62 -27 53z"></path><path id="p1Bd53cFhc" d="M7262 1120 c-18 -29 -15 -32 13 -14 14 9 22 20 19 25 -8 14 -18 11 -32 -11z"></path><path id="p6Iug3iLl" d="M7292 1024 c-22 -15 -31 -54 -12 -54 6 0 10 7 10 15 0 9 11 20 25 25 26 10 34 30 12 30 -7 0 -23 -7 -35 -16z"></path><path id="pmZujE9gS" d="M3482 995 c12 -27 28 -34 28 -12 0 14 -20 37 -32 37 -4 0 -2 -11 4 -25z"></path><path id="p3phKhtu6" d="M7246 903 c-11 -11 -6 -23 8 -23 8 0 17 4 20 9 7 10 -19 23 -28 14z"></path><path id="p2QfsxjUx" d="M3620 825 c0 -8 7 -15 15 -15 8 0 15 7 15 15 0 8 -7 15 -15 15 -8 0 -15 -7 -15 -15z"></path><path id="pAGq7NECN" d="M3687 833 c-7 -11 10 -40 18 -31 4 4 3 14 -3 24 -5 9 -12 12 -15 7z"></path><path id="pw1NlTomL" d="M7130 825 c0 -8 7 -15 15 -15 8 0 15 7 15 15 0 8 -7 15 -15 15 -8 0 -15 -7 -15 -15z"></path><path id="pIgDm4GCo" d="M3606 765 c-3 -9 1 -18 10 -22 21 -8 25 -1 9 20 -11 15 -13 16 -19 2z"></path><path id="p1767DaMgW" d="M7152 760 c-10 -17 -10 -20 3 -20 8 0 15 9 15 20 0 11 -1 20 -3 20 -1 0 -8 -9 -15 -20z"></path></g></g></svg>