<svg class="img-fluid" id="outputsvg" xmlns="http://www.w3.org/2000/svg" style="transform: matrix(1.3, 0, 0, 1.3, 0, 0); transform-origin: 50% 50%; cursor: move; max-height: none; transition: transform 200ms ease-in-out;" width="1080" height="1080" viewBox="0 0 10800 10800"><g id="l4aphuSgP23NDrKmbGiKkk5" fill="rgb(6,115,190)" style="transform: none;"><g style="transform: none;"><path id="p1AEUGUUI7" d="M742 8578 l3 -1482 105 -43 c58 -24 141 -61 185 -82 44 -22 148 -68 230 -104 83 -35 193 -85 245 -110 52 -25 156 -71 230 -102 74 -32 160 -70 191 -86 31 -15 121 -56 200 -89 79 -34 170 -75 201 -90 31 -16 121 -57 200 -90 79 -34 195 -86 258 -115 153 -71 394 -179 617 -276 l182 -79 1815 0 1815 0 143 60 c79 33 175 76 213 95 39 19 151 70 250 113 99 44 221 99 270 122 50 23 122 55 160 70 39 16 122 53 185 83 63 31 187 86 274 122 88 37 169 73 180 80 12 8 57 29 101 48 44 19 101 44 126 55 25 12 70 30 100 42 30 12 69 30 87 41 19 11 113 53 209 95 96 41 221 97 277 123 55 27 138 63 184 81 l82 33 0 1483 0 1484 -4660 0 -4660 0 2 -1482z"></path><path id="pMDPeuqfM" d="M5210 4514 c-202 -23 -313 -50 -483 -117 -161 -64 -289 -130 -372 -191 -38 -28 -90 -65 -115 -81 -70 -47 -279 -260 -356 -365 -74 -100 -109 -159 -192 -326 -178 -353 -222 -807 -123 -1259 53 -239 200 -529 378 -741 183 -219 408 -395 655 -513 137 -65 428 -148 583 -167 199 -24 473 -10 615 31 30 9 82 23 115 31 127 31 320 112 435 182 80 49 221 145 241 165 13 12 61 56 106 96 45 40 115 114 155 165 40 50 75 93 79 96 14 10 109 169 162 272 161 307 228 702 182 1070 -35 277 -103 479 -247 732 -191 335 -567 658 -923 791 -38 15 -83 33 -100 40 -45 20 -173 54 -272 71 -84 15 -443 27 -523 18z"></path></g></g></svg>