<svg class="img-fluid" id="outputsvg" xmlns="http://www.w3.org/2000/svg" style="transform: none; transform-origin: 50% 50%; cursor: move; max-height: none;" width="1080" height="1080" viewBox="0 0 10800 10800"><g id="l6PKm8rWA3PsHGLXWWuZm3S" fill="rgb(0,151,93)" style="transform: none;"><g style="transform: none;"><path id="p15csKGaW8" d="M740 5400 l0 -4660 4660 0 4660 0 0 4660 0 4660 -4660 0 -4660 0 0 -4660z m7400 2050 l0 -260 -22 -5 c-13 -3 -1245 -4 -2738 -3 l-2715 3 -3 263 -2 262 2740 0 2740 0 0 -260z m0 -2050 l0 -260 -2740 0 -2740 0 0 260 0 260 2740 0 2740 0 0 -260z m-6 -1796 c3 -9 6 -128 6 -265 l0 -249 -2740 0 -2740 0 0 259 c0 198 3 261 13 264 6 3 1237 6 2733 6 2473 1 2722 0 2728 -15z"></path></g></g><g id="l1t3YLHli1add5ZgTKp1LF0" fill="rgb(255,255,255)" style="transform: none;"><g style="transform: none;"><path id="prXdr5E3f" d="M2632 7448 l3 -293 2745 -3 c1510 -1 2755 0 2768 3 l22 5 0 290 0 290 -2770 0 -2770 0 2 -292z"></path><path id="p14FOaGzYK" d="M2630 5400 l0 -290 2770 0 2770 0 0 290 0 290 -2770 0 -2770 0 0 -290z"></path><path id="pHhniwBCX" d="M2643 3643 c-10 -3 -13 -72 -13 -294 l0 -289 2770 0 2770 0 0 279 c0 154 -3 286 -6 295 -6 15 -257 16 -2758 15 -1513 0 -2757 -3 -2763 -6z"></path></g></g></svg>