<?xml version="1.0" encoding="utf-8"?>
<!DOCTYPE svg PUBLIC "-//W3C//DTD SVG 1.0//EN" "http://www.w3.org/TR/2001/REC-SVG-20010904/DTD/svg10.dtd">
<svg version="1.0" xmlns="http://www.w3.org/2000/svg" width="1063px" height="841px" viewBox="0 0 1063 841" preserveAspectRatio="xMidYMid meet">
 <g fill="#ffffff">
  <path d="M0 420.50 l0 -420.50 531.50 0 531.50 0 0 420.50 0 420.50 -531.50 0 -531.50 0 0 -420.50z m187.50 387.70 c15.50 -3.10 26.95 -10.85 32.40 -21.85 2.85 -5.85 3.75 -9.95 3.75 -16.85 0 -8.30 -2.15 -15.35 -6.15 -20.50 -0.75 -0.95 -1.45 -2 -1.55 -2.30 -0.40 -1.15 -8.95 -8 -12.85 -10.35 -4.35 -2.55 -11.40 -6.20 -16.60 -8.55 -21 -9.50 -27.85 -13.30 -33.10 -18.50 -3.90 -3.85 -4.90 -6.65 -4.90 -13.45 0 -7.10 1.20 -10.50 4.85 -13.90 3.90 -3.70 9.25 -5.60 17 -6.20 6.20 -0.45 16 0.45 21.40 2 4.60 1.35 12.55 5.25 15.80 7.80 1 0.80 2.05 1.45 2.25 1.45 0.40 -0.05 7.35 -9.05 8.35 -10.80 0.55 -1 -0.25 -1.90 -3.65 -4.10 -11.45 -7.35 -27.90 -11.70 -41.25 -10.90 -3 0.20 -6.40 0.55 -7.50 0.75 -1.10 0.25 -3.25 0.70 -4.75 1 -1.50 0.30 -3.60 1 -4.75 1.55 -1.10 0.50 -2.65 1.20 -3.50 1.50 -2.35 0.90 -9.30 5.75 -11.70 8.20 -2.95 3 -6.35 8.65 -7.75 12.90 -1.95 5.75 -1.95 14.55 -0.05 20.90 3.10 10.20 11 17.85 26.65 25.70 6.15 3.10 7.35 3.65 14.85 6.90 10.70 4.65 17.45 8.25 22.75 12.10 2.65 1.95 6.50 5.60 6.50 6.20 0 0.15 0.30 0.65 0.65 1.05 1.65 1.95 2.55 5.75 2.50 11.05 0 8.20 -1.60 12.55 -6.30 16.85 -4.35 4.05 -9.70 5.90 -19.10 6.70 -11.50 1 -22.15 -1 -32.30 -6.05 -3.45 -1.70 -9.70 -5.65 -11.35 -7.15 l-1.15 -1.10 -1.20 1.50 c-0.65 0.85 -2.80 3.50 -4.75 5.95 l-3.50 4.45 1.60 1.20 c16.75 12.55 40.15 18.50 58.40 14.85z m124.50 0 c11.30 -2.20 20.70 -7.20 29.75 -15.75 2.90 -2.75 3.95 -3.45 5.20 -3.45 l1.55 0 0 8.75 0 8.75 9 0 9.05 0 -0.20 -54.35 c-0.20 -58.70 -0.05 -55.45 -2.80 -64 -3.35 -10.40 -11.95 -19.25 -22.55 -23.10 -4.15 -1.50 -11.15 -3.05 -16.85 -3.65 -5.25 -0.60 -19.45 0.05 -23.90 1.05 -1.10 0.25 -3.35 0.75 -5 1.05 -3.70 0.70 -9.70 2.40 -10.85 3.05 -0.50 0.25 -1.20 0.45 -1.55 0.45 -0.65 0 -4.60 1.65 -9.75 4.10 -2.50 1.20 -2.50 1 0.65 7.40 1.20 2.35 2.30 4.75 2.45 5.40 0.45 1.45 0.65 1.40 4.15 -0.55 15.25 -8.55 41.90 -10.80 54.10 -4.60 4.70 2.35 9.35 7.45 11.25 12.25 2.50 6.50 2.80 8.55 2.80 22.90 l0 13.60 -1.95 0 c-1.10 0 -2.15 -0.20 -2.30 -0.50 -0.15 -0.25 -0.65 -0.50 -1.10 -0.50 -0.45 0 -2.25 -0.65 -4 -1.50 -1.70 -0.80 -3.40 -1.50 -3.65 -1.50 -0.30 0 -1.90 -0.45 -3.50 -1 -12.50 -4.20 -31.60 -3.80 -45 0.95 -8.95 3.15 -17.20 9 -22.15 15.65 -2.05 2.75 -5.30 9.60 -6.50 13.60 -0.95 3.05 -1.05 4.80 -1.05 12.80 0 8.60 0.10 9.55 1.40 13.75 1.55 5.10 4 10.75 4.70 10.75 0.30 0 0.65 0.55 0.80 1.20 0.40 1.70 7 8.30 10.45 10.50 10.60 6.80 23.90 9.10 37.35 6.50z m304 0.25 c7.65 -1.05 15.95 -3.70 23.75 -7.55 4.55 -2.30 11.65 -6.40 12.30 -7.20 0.40 -0.50 -0.25 -1.90 -3.10 -6.20 l-3.60 -5.50 -1.30 0.85 c-7.20 4.80 -17.85 9.30 -24.90 10.60 -5.05 0.95 -15.45 1.25 -20.15 0.60 -15.50 -2.05 -26.65 -13.05 -32 -31.60 -2.45 -8.40 -3.85 -21.40 -2.35 -21.45 0.30 -0.05 22.05 0 48.25 0 45.30 0.05 47.65 0 48 -0.85 0.20 -0.50 0.35 -5.60 0.30 -11.40 -0.05 -9.25 -0.20 -11.25 -1.35 -16.80 -3.70 -17.65 -9.65 -28.80 -20.80 -38.65 -8.50 -7.50 -21.90 -12.30 -34.45 -12.30 -8 0 -18.85 2.85 -25.45 6.75 -8.50 4.95 -16.60 12.75 -20.65 19.85 -7.45 13.05 -10.90 24.70 -12 40.80 -0.95 13.70 1.20 29.90 5.50 41.55 4.80 13.10 12.70 23.65 22.60 30.20 12 8 24.70 10.55 41.40 8.30z m290.25 0 c7.35 -1.10 17.05 -5.10 23.70 -9.85 1.80 -1.30 5 -4 7.10 -5.95 3.05 -2.95 4.10 -3.65 5.40 -3.65 l1.55 0 0 8.75 0 8.75 9 0 9 0 0 -51.75 c0 -56.80 0 -57.10 -3 -66.45 -2.50 -7.80 -7.75 -14.60 -14.95 -19.35 -2 -1.35 -3.90 -2.45 -4.15 -2.45 -0.25 0 -1.40 -0.45 -2.50 -1 -1.15 -0.55 -2.45 -1 -2.90 -1 -0.45 0 -1 -0.20 -1.25 -0.45 -0.60 -0.50 -6.85 -1.75 -13 -2.60 -10.15 -1.35 -27.25 0.70 -39.30 4.75 -7.20 2.40 -14.45 5.50 -14.45 6.20 0 0.40 5.40 12.10 5.75 12.50 0.10 0.10 1.90 -0.70 4.10 -1.80 19.40 -9.85 47.45 -10.65 57.75 -1.70 3.55 3.05 4.40 4.15 6.35 8.30 3.05 6.45 3.55 10 3.55 24.70 l0 13.10 -1.70 0 c-0.90 0 -3.10 -0.65 -4.85 -1.45 -5.35 -2.40 -10.85 -4 -18.45 -5.35 -6.35 -1.15 -8.15 -1.25 -14.75 -1.05 -9.35 0.35 -17.60 1.80 -22 3.85 -0.55 0.30 -1.80 0.80 -2.75 1.10 -2.95 1.10 -7.65 3.80 -11.30 6.60 -9 6.85 -14.70 17.65 -15.65 29.55 -1.50 19.35 6.65 35.80 21.30 43.20 9.60 4.85 20.15 6.30 32.40 4.50z m-472.25 -100.75 l0 -98.80 -2.10 1.25 c-6.35 3.65 -14.95 8.35 -15.40 8.35 -0.35 0 -0.50 31.35 -0.50 94 l0 94 9 0 9 0 0 -98.80z m69.50 27.55 l0 -71.25 -9 0 -9 0 0 71.25 0 71.25 9 0 9 0 0 -71.25z m218 24.95 c0 -30.85 0.20 -47.45 0.55 -49.85 1.75 -11.55 6.45 -21.45 12.60 -26.50 7.55 -6.20 14.60 -8.20 26.55 -7.70 10.80 0.50 16.60 2.65 22.45 8.30 4.90 4.75 8 11.50 9.95 21.75 1 5.35 1.05 7.30 1.25 52.95 l0.25 47.35 8.80 -0.10 8.85 -0.15 0.15 -41.50 c0.20 -54.65 -0.25 -61.20 -5.15 -74.65 -3.85 -10.70 -13.45 -20.85 -23.50 -25 -9.65 -3.95 -23.55 -5.10 -32.50 -2.70 -9.50 2.55 -18.95 8.55 -24.30 15.40 -2.25 2.80 -2.75 3.20 -4.25 3.20 l-1.70 0 0 -8.50 0 -8.50 -9 0 -9 0 0 71.25 0 71.25 9 0 9 0 0 -46.30z m-221.15 -127.35 c6.15 -3.90 8.65 -10.25 6.15 -15.70 -1.25 -2.80 -4.65 -6.15 -7.75 -7.60 -4.75 -2.25 -10.30 -0.50 -14.25 4.50 -1.10 1.40 -2.25 3.45 -2.55 4.60 -1.50 5.60 1.80 11.85 7.80 14.70 3.20 1.55 7.70 1.35 10.60 -0.50z m24.60 -103.15 l4.10 -0.35 2.90 -3.80 c2.75 -3.65 9.10 -13.10 13.45 -20.05 4 -6.50 11.15 -21.35 15.50 -32.25 3.30 -8.40 7.55 -23.25 9.80 -34.75 2.75 -13.80 3.50 -21.60 3.50 -38 0.05 -16.30 -0.40 -22.70 -2.55 -34.75 -2.15 -12.30 -4.45 -21.55 -8.75 -34.75 -2.35 -7.20 -3.35 -9.85 -7.30 -19.25 -1.50 -3.60 -16.65 -34 -19.80 -39.75 -2.40 -4.45 -13.15 -25.95 -15.25 -30.55 -11.85 -26.15 -17.95 -45 -21.50 -66.70 -2.05 -12.40 -2.30 -16.40 -2.25 -37.75 0 -19.65 0.10 -21.30 1.35 -31 2.45 -18.30 7.45 -38.95 12.65 -52.25 1.70 -4.30 2.20 -5.55 4.70 -11.75 2.35 -5.90 9.95 -20.60 14.35 -27.85 l4.65 -7.65 -111.50 0 -111.50 0 0 12.65 c-0.05 6.90 -0.05 122.50 0 256.85 0 134.35 0 246.35 0 248.85 l0 4.65 87.15 0.10 c47.90 0.10 95 0.20 104.65 0.30 9.70 0.10 19.40 0 21.65 -0.20z m179.20 -0.15 l77.85 -0.05 0 -261.50 0 -261.50 -109.45 0 -109.50 0 -1.15 1.60 c-0.60 0.90 -1.30 1.90 -1.50 2.15 -1.95 2.40 -5.40 7.40 -5.40 7.70 0 0.20 -0.45 0.80 -1 1.30 -0.55 0.50 -1 1.10 -1 1.35 0 0.25 -1.10 2.10 -2.50 4.20 -1.35 2.05 -2.50 3.85 -2.50 3.95 0 0.10 -0.70 1.40 -1.60 2.85 -2.50 4.15 -9.90 19.05 -9.90 19.95 0 0.40 -0.20 0.95 -0.45 1.25 -0.40 0.40 -1.55 3.10 -3.40 7.95 -0.45 1.10 -0.95 2.45 -1.20 3 -1.30 3.05 -4.65 14.15 -6.40 21.30 -4.70 18.95 -6.25 31.60 -6.25 50.20 0.05 18.70 1.45 30.90 5.50 47.75 2.60 10.80 6.75 24.10 9.20 29.75 0.25 0.55 1.25 3.05 2.20 5.50 4.25 10.95 9.30 21.95 17.05 37 11.75 22.90 23.80 46.85 24.75 49.20 0.50 1.25 1.65 4 2.50 6.05 2.70 6.30 7.40 20.80 9.50 29.25 4.05 16.30 6.20 31.45 7.05 48.95 1.40 29.95 -2.40 57.85 -11.80 86.05 -1.60 4.85 -2.10 6.20 -3.55 9.60 -0.40 0.85 -0.70 1.80 -0.70 2.05 0 0.25 -0.65 1.85 -1.50 3.50 -0.80 1.70 -1.50 3.25 -1.50 3.50 0 0.30 -0.80 2.15 -1.80 4.15 -1 2.05 -2.60 5.30 -3.50 7.20 -2.10 4.40 -5.90 11.45 -7.20 13.25 -0.55 0.80 -1 1.55 -1 1.75 0 0.15 -1.05 1.90 -2.35 3.90 -4.20 6.35 -4.30 5.80 1 5.95 2.55 0.10 17.90 0.10 34.10 0.05 16.25 -0.05 64.55 -0.10 107.40 -0.10z"/>
  <path d="M294.50 794.50 c-8.65 -2.35 -13.50 -6.15 -17 -13.50 -2.40 -4.90 -3.20 -9.45 -3.20 -17.75 0 -6.60 0.15 -7.90 1.20 -11 1.50 -4.30 3.70 -7.85 6.60 -10.55 2.30 -2.20 6.75 -5.20 7.60 -5.20 0.30 0 1.20 -0.35 1.95 -0.75 3.50 -1.80 9.25 -2.50 20.60 -2.45 14.85 0 22.25 1.40 31.90 5.80 l4.35 2.05 0 16.20 0 16.20 -1.95 2.60 c-6 8.15 -16.40 14.85 -27.60 17.85 -6.20 1.65 -19.15 1.90 -24.45 0.50z"/>
  <path d="M564 724.85 c0 -3.40 0.95 -10.25 2.05 -14.85 4.30 -17.70 12.45 -27.95 25.95 -32.60 2.90 -0.95 4.30 -1.10 12.75 -1.10 l9.50 0 4.45 1.65 c9.10 3.35 14.30 7.95 19.30 17.05 2.55 4.60 4.25 9.35 5.50 15.20 1.10 5.30 2.20 15 1.80 16.05 -0.25 0.65 -5.70 0.75 -40.80 0.75 l-40.50 0 0 -2.15z"/>
  <path d="M891 794.75 c-3.45 -0.70 -8.50 -2.85 -10.45 -4.50 -3.90 -3.20 -5 -4.50 -6.85 -8.05 -2.95 -5.60 -3.85 -9.85 -3.85 -18.40 -0.05 -8.10 0.70 -11.70 3.40 -16.55 3.65 -6.55 9.95 -10.85 19.25 -13.15 4.75 -1.15 24.90 -1.10 31.45 0.10 6 1.10 11.90 2.95 16.45 5.20 l3.60 1.80 0 16.20 0 16.25 -2.05 2.70 c-4.15 5.35 -11.60 11.35 -17.45 14 -5.20 2.35 -5.95 2.65 -6.85 2.65 -0.50 0 -1.15 0.20 -1.40 0.45 -0.30 0.25 -2.60 0.80 -5.20 1.25 -5.60 0.95 -15.45 1 -20.05 0.05z"/>
  <path d="M640.30 185.65 l0.35 -17.40 -1.95 1.80 c-1.10 0.95 -3.50 3.20 -5.45 5 -1.90 1.80 -4.75 4.40 -6.25 5.75 -1.50 1.35 -4.55 4.20 -6.75 6.30 -3.30 3.20 -4.30 3.90 -5.60 3.90 -1.60 0 -1.65 -0.10 -1.65 -1.95 0 -1.70 1.25 -5.15 4 -10.80 2.20 -4.50 8.90 -19.50 8.80 -19.60 -0.10 -0.10 -6.85 2.10 -15.10 4.90 -8.20 2.80 -15.80 5.20 -16.80 5.30 -1.90 0.25 -1.90 0.25 -1.90 -1.50 0 -1.35 0.35 -2.05 1.35 -2.85 0.75 -0.55 3.05 -2.60 5.10 -4.45 2.95 -2.65 16.50 -14.65 18.70 -16.55 0.20 -0.20 -7.40 -1.10 -16.90 -2 l-17.25 -1.70 0 -1.60 c0 -1.75 -2.25 -0.85 21 -8.20 5.35 -1.65 10.15 -3.20 10.65 -3.40 0.75 -0.30 -0.05 -0.95 -3.65 -3 -2.50 -1.40 -4.90 -2.60 -5.30 -2.60 -0.40 0 -0.70 -0.20 -0.70 -0.50 0 -0.25 -1.50 -1.25 -3.35 -2.25 -1.90 -0.95 -5.85 -3.15 -8.90 -4.85 -5.40 -3.10 -5.50 -3.20 -5.65 -5.10 l-0.15 -1.95 3.40 0.30 c1.85 0.15 9.35 1 16.65 1.85 7.25 0.80 13.40 1.50 13.60 1.50 0.20 0 -0.75 -1.50 -2.10 -3.35 -1.40 -1.90 -5.45 -7.40 -9 -12.25 -3.60 -4.90 -6.85 -9.20 -7.25 -9.60 -0.40 -0.40 -0.75 -1.55 -0.75 -2.50 0 -1.70 0.10 -1.80 1.65 -1.80 0.95 0 2.75 0.70 4.50 1.75 1.60 0.95 3.05 1.75 3.30 1.75 0.20 0 1.25 0.65 2.35 1.50 1.05 0.80 2.10 1.50 2.30 1.50 0.20 0 2.95 1.60 6.15 3.50 3.20 1.95 5.95 3.50 6.15 3.50 0.25 0 1.35 0.70 2.50 1.55 1.15 0.85 2.10 1.35 2.10 1.10 0 -0.45 -0.90 -4.80 -3 -14.15 -0.55 -2.45 -1.45 -6.55 -2 -9.05 -0.55 -2.55 -1.20 -5.40 -1.50 -6.40 -0.25 -1 -0.50 -2.40 -0.50 -3.15 0 -1.25 0.20 -1.40 1.70 -1.40 1.70 0 2 0.35 9.15 10.30 4.05 5.70 8.40 11.80 9.60 13.55 1.20 1.75 2.30 3.10 2.40 2.95 0.30 -0.25 3.20 -13.95 5.50 -25.70 l1.40 -7.15 1.75 0.15 1.75 0.15 2.85 14 c1.55 7.70 3 14.95 3.20 16.15 0.20 1.15 0.50 2.20 0.70 2.35 0.20 0.10 4.60 -5.75 9.75 -13 9.10 -12.75 9.50 -13.25 11.10 -13.25 2.40 0 2.40 0.05 -1.35 17 -0.55 2.50 -1.45 6.55 -2 9.05 -0.55 2.55 -1.20 5.35 -1.45 6.25 l-0.45 1.70 1.55 -0.85 c0.90 -0.45 2.40 -1.30 3.35 -1.90 0.95 -0.65 4.55 -2.75 8 -4.80 3.45 -2 8.25 -4.85 10.70 -6.30 3 -1.80 5 -2.65 6.15 -2.65 1.55 0 1.65 0.10 1.65 1.65 0 1.15 -0.55 2.40 -1.70 3.90 -0.90 1.20 -4.65 6.25 -8.30 11.20 -3.65 4.95 -7.30 9.85 -8.15 10.95 l-1.50 1.90 3.20 -0.35 c1.75 -0.15 8.80 -1 15.65 -1.80 6.85 -0.80 13.20 -1.45 14.15 -1.45 1.55 0 1.65 0.10 1.65 1.75 0 1.50 -0.25 1.85 -2.10 2.90 -1.20 0.65 -6.10 3.40 -10.90 6.10 -4.80 2.70 -9.55 5.40 -10.50 6 -0.95 0.60 -2.65 1.50 -3.70 2 -2.35 1.10 -3 0.75 8.20 4.25 4.55 1.40 8.70 2.75 9.25 2.95 0.55 0.25 3.60 1.20 6.75 2.10 l5.75 1.70 0.15 1.90 c0.10 1.25 -0.05 1.85 -0.50 1.85 -0.65 0 -15.10 1.40 -26.95 2.55 l-6.30 0.65 1.65 1.65 c0.90 0.90 1.85 1.65 2.10 1.65 0.25 0 1.20 0.85 2.15 1.90 0.95 1 2.90 2.85 4.40 4.10 1.50 1.25 3.30 2.80 4.05 3.50 0.80 0.70 2.50 2.20 3.85 3.35 6.75 5.80 6.65 5.70 6.65 7.45 0 1.60 -0.10 1.70 -1.65 1.70 -0.90 0 -8.35 -2.25 -16.60 -5 -8.20 -2.75 -15 -4.95 -15.05 -4.85 -0.10 0.10 0.90 2.45 4.10 9.25 0.95 2 1.70 3.75 1.70 3.85 0 0.15 1.15 2.60 2.50 5.50 1.40 2.90 2.50 5.40 2.50 5.50 0 0.15 0.55 1.40 1.25 2.85 0.70 1.40 1.25 3.20 1.25 4 0 1.30 -0.15 1.40 -2 1.40 -1.30 0 -2.15 -0.25 -2.30 -0.70 -0.15 -0.40 -2.80 -2.95 -5.85 -5.65 -3.10 -2.70 -6.25 -5.60 -7.10 -6.45 -2.05 -2.15 -10.10 -9.20 -10.55 -9.20 -0.20 0 -0.25 7.65 -0.10 17.05 l0.30 17 -1.80 -0.15 c-1.75 -0.15 -1.85 -0.30 -3.50 -4.15 -0.95 -2.20 -2.40 -5.55 -3.30 -7.50 -0.90 -1.90 -3.05 -6.95 -4.85 -11.10 -1.75 -4.20 -3.30 -7.65 -3.45 -7.65 -0.15 0 -1.80 3.65 -3.70 8.15 -1.90 4.45 -3.95 9.25 -4.55 10.60 -0.65 1.40 -1.80 3.95 -2.60 5.75 -0.85 1.80 -1.65 3.85 -1.85 4.65 -0.30 1.20 -0.55 1.35 -2.30 1.35 l-2 0 0.30 -17.35z"/>
 </g>
 <g fill="#002c4f">
  <path d="M309.80 268.25 l0.10 -263 113.80 -0.15 c62.60 -0.05 113.80 0 113.80 0.15 0 0.10 -2.40 4.20 -5.40 9.10 -5 8.30 -12.65 23.05 -15.05 29.05 -0.60 1.40 -1.50 3.65 -2 5 -7.65 18.85 -12.50 37.45 -15.35 59.10 -1.30 9.55 -1.40 11.50 -1.40 29.50 -0.05 19.75 0.20 23.95 2.25 36.25 3.55 21.70 9.65 40.55 21.50 66.70 2.10 4.60 12.85 26.10 15.25 30.55 3.15 5.75 18.30 36.15 19.80 39.75 3.95 9.40 4.95 12.05 7.30 19.25 6.60 20.40 9.40 34.15 11.35 56 0.70 7.75 0.10 31.35 -1 38.25 -0.10 0.85 -0.35 2.65 -0.50 4 -1.45 12.70 -7 34.80 -11.85 47 -4.35 10.90 -11.50 25.75 -15.50 32.25 -8.40 13.45 -15.90 23.95 -17.30 24.10 -0.45 0.05 -50.10 0.10 -110.35 0.10 l-109.50 0.05 0.05 -263z"/>
 </g>
 <g fill="#0078bf">
  <path d="M554.50 531.10 c0 -0.10 0.70 -1.15 1.50 -2.35 0.85 -1.20 1.50 -2.30 1.50 -2.40 0 -0.15 1.15 -1.95 2.50 -4 1.40 -2.05 2.50 -3.90 2.50 -4.10 0 -0.20 0.45 -0.95 1 -1.75 1.30 -1.80 5.10 -8.85 7.20 -13.25 0.90 -1.90 2.50 -5.15 3.50 -7.20 1 -2 1.80 -3.85 1.80 -4.15 0 -0.25 0.70 -1.80 1.50 -3.50 0.85 -1.65 1.50 -3.25 1.50 -3.50 0 -0.25 0.30 -1.20 0.70 -2.05 1.45 -3.40 1.95 -4.75 3.55 -9.60 7.85 -23.50 12 -48.30 12 -71.25 0 -21.65 -2.25 -40.60 -7.25 -60.75 -2.10 -8.45 -6.80 -22.95 -9.50 -29.25 -0.85 -2.05 -2 -4.80 -2.50 -6.05 -0.95 -2.35 -13 -26.30 -24.75 -49.20 -7.75 -15.05 -12.80 -26.05 -17.05 -37 -0.95 -2.45 -1.95 -4.95 -2.20 -5.50 -3.85 -8.80 -9.75 -29.95 -11.95 -43 -2.45 -14.30 -2.80 -19.40 -2.75 -37.25 0 -19 1.60 -31.60 6.25 -50.45 1.75 -7.15 5.10 -18.25 6.40 -21.30 0.25 -0.55 0.75 -1.90 1.20 -3 1.85 -4.85 3 -7.55 3.40 -7.95 0.25 -0.30 0.45 -0.85 0.45 -1.25 0 -0.90 7.40 -15.80 9.90 -19.95 0.90 -1.45 1.60 -2.75 1.60 -2.85 0 -0.10 1.15 -1.90 2.50 -3.95 1.40 -2.10 2.50 -3.95 2.50 -4.20 0 -0.25 0.45 -0.85 1 -1.35 0.55 -0.50 1 -1.10 1 -1.30 0 -0.30 3.45 -5.30 5.40 -7.70 0.20 -0.25 0.90 -1.25 1.50 -2.10 l1.15 -1.65 111.10 0 111.10 0 -0.10 246.40 c-0.05 135.50 -0.10 253.90 -0.10 263.10 l-0.05 16.75 -114.50 0.05 c-63 0 -114.50 -0.05 -114.50 -0.20z m88.30 -330.95 c0.35 -1.25 2.65 -6.80 3.65 -8.65 0.20 -0.40 2.60 -5.90 5.30 -12.25 2.65 -6.30 4.95 -11.60 5.05 -11.70 0.20 -0.20 2.10 4 5.95 12.95 1.60 3.70 3.60 8.35 4.50 10.25 0.85 1.95 2.25 5.05 3 6.90 0.80 1.85 1.55 3.50 1.70 3.60 0.15 0.05 0.25 -8.15 0.15 -18.30 -0.10 -11.80 0.05 -18.45 0.35 -18.45 0.25 0 0.90 0.55 1.40 1.20 0.55 0.65 3.10 3.05 5.70 5.30 2.60 2.25 5.40 4.80 6.20 5.70 0.85 0.85 4 3.75 7.10 6.45 3.05 2.70 5.70 5.25 5.85 5.65 0.15 0.40 0.50 0.70 0.75 0.70 0.25 0 -0.10 -1.10 -0.75 -2.50 -0.65 -1.35 -1.20 -2.60 -1.20 -2.75 0 -0.10 -1.10 -2.60 -2.50 -5.50 -1.35 -2.90 -2.50 -5.35 -2.50 -5.50 0 -0.10 -0.75 -1.85 -1.70 -3.85 -6.55 -14 -6.85 -14.80 -5.75 -14.15 0.90 0.60 34.60 11.75 34.80 11.55 0.15 -0.15 -1.10 -1.30 -6.50 -5.95 -1.35 -1.15 -3.05 -2.65 -3.85 -3.35 -0.75 -0.70 -2.55 -2.25 -4.05 -3.50 -1.50 -1.25 -3.45 -3.10 -4.40 -4.10 -0.95 -1.05 -2 -1.90 -2.35 -1.90 -0.35 0 -0.90 -0.40 -1.15 -0.85 -0.25 -0.50 -1.50 -1.65 -2.75 -2.60 -1.25 -0.95 -2.30 -1.90 -2.30 -2.10 0 -0.40 2.15 -0.80 6.50 -1.20 3.60 -0.30 17.45 -1.65 23.65 -2.25 2.70 -0.30 5.25 -0.50 5.65 -0.50 1.90 0 -0.20 -0.95 -5.40 -2.45 -3.10 -0.90 -6.10 -1.85 -6.65 -2.10 -1.20 -0.50 -19.20 -6.10 -21.60 -6.75 -1.25 -0.30 -0.65 -0.95 2.25 -2.40 1.55 -0.80 3.85 -2.05 5.10 -2.80 1.25 -0.75 6.20 -3.55 11 -6.25 4.80 -2.70 9.70 -5.45 10.90 -6.10 1.20 -0.70 2.05 -1.35 1.95 -1.45 -0.15 -0.15 -2.90 0.10 -6.15 0.50 -3.30 0.40 -11.10 1.35 -17.45 2.05 -6.30 0.70 -12 1.40 -12.65 1.50 -0.95 0.25 -0.65 -0.35 1.80 -3.60 1.60 -2.15 4.85 -6.50 7.20 -9.65 2.30 -3.15 5.90 -8 7.95 -10.75 2.05 -2.75 3.90 -5.30 4.15 -5.65 0.50 -0.80 -1.50 0.15 -5.95 2.90 -3.40 2.05 -6.25 3.75 -15.25 9 -3.45 2 -7.25 4.30 -8.50 5.05 -1.20 0.75 -2.25 1.35 -2.30 1.30 -0.10 -0.10 0.65 -3.60 2.75 -13.20 0.60 -2.55 1.50 -6.65 2.05 -9.15 2.35 -10.60 3 -13.70 2.85 -13.80 -0.10 -0.10 -4.95 6.55 -10.85 14.80 -5.85 8.20 -10.85 14.85 -11.10 14.70 -0.25 -0.15 -0.30 -0.45 -0.20 -0.65 0.15 -0.20 0.05 -1.15 -0.20 -2.10 -0.25 -0.95 -0.55 -2.25 -0.70 -2.95 -0.95 -5.30 -5.90 -29.40 -6.10 -30 -0.20 -0.40 -0.95 2.30 -1.70 6 -2.70 13.45 -6.10 29.75 -6.20 29.85 -0.15 0.15 -2.20 -2.70 -5.25 -7.10 -3.35 -4.85 -16.60 -23.25 -16.80 -23.25 -0.05 0 0.25 1.65 0.80 3.65 0.50 1.95 1.05 4.40 1.20 5.35 0.15 0.95 0.60 3.10 1 4.75 0.40 1.65 1.15 5.15 1.75 7.75 0.60 2.60 1.50 6.60 2.05 8.85 1.45 6.25 1.30 7 -1.05 5.15 -0.70 -0.55 -1.45 -1 -1.75 -1 -0.25 0 -1.40 -0.70 -2.45 -1.50 -1.10 -0.85 -2.15 -1.50 -2.35 -1.50 -0.25 0 -3 -1.60 -6.20 -3.50 -3.20 -1.95 -5.95 -3.50 -6.10 -3.50 -0.15 0 -1 -0.50 -1.85 -1.15 -0.85 -0.65 -2.20 -1.50 -3.05 -1.90 -0.80 -0.40 -2.55 -1.40 -3.85 -2.15 -2.35 -1.40 -3.05 -1.40 -1.70 -0.05 0.40 0.40 3.45 4.50 6.85 9.10 3.40 4.60 8.05 10.90 10.30 13.90 2.35 3.15 3.85 5.55 3.50 5.65 -0.65 0.15 -31.30 -3.20 -34.30 -3.75 -1.10 -0.20 -1.60 -0.10 -1.40 0.20 0.30 0.45 12.25 7.35 16.25 9.35 0.85 0.45 1.60 1.05 1.60 1.30 0 0.30 0.35 0.50 0.75 0.50 0.40 0 2.70 1.15 5.10 2.60 2.40 1.40 5.15 2.90 6.05 3.35 0.85 0.40 1.60 0.90 1.60 1.10 0 0.20 -1.05 0.70 -2.35 1.15 -1.35 0.40 -6.80 2.10 -12.15 3.80 -5.35 1.70 -12.35 3.90 -15.50 4.90 l-5.75 1.85 10.75 1.05 c5.90 0.60 12.35 1.20 14.25 1.40 3.70 0.35 7.35 0.70 10.25 1.05 0.95 0.10 1.90 0.20 2.15 0.20 0.20 0.05 -0.50 0.80 -1.50 1.70 -1.05 0.90 -5.15 4.55 -9.15 8.10 -6.85 6.05 -12.90 11.40 -16.25 14.45 -0.80 0.75 -1.20 1.20 -0.80 1 1.50 -0.80 35.55 -11.95 35.55 -11.65 0 0.15 -0.30 0.95 -0.70 1.75 -0.40 0.80 -2.45 5.30 -4.55 9.95 -2.15 4.70 -4.60 10.10 -5.50 12 -2.95 6.30 -4.40 9.75 -4.20 9.95 0.10 0.15 2 -1.50 4.20 -3.60 2.25 -2.10 5.15 -4.85 6.50 -6.10 1.40 -1.25 5 -4.55 8 -7.30 3.05 -2.80 6.25 -5.70 7.15 -6.50 l1.70 -1.35 -0.20 18.55 c-0.10 10.25 0 18.60 0.20 18.60 0.20 0 0.55 -0.60 0.70 -1.35z"/>
 </g>
 <g fill="#9c9b9b">
  <path d="M172 810.90 c-0.15 -0.15 -2.15 -0.40 -4.50 -0.60 -13.25 -0.95 -27.45 -6.50 -40.05 -15.55 -1.50 -1.05 -2.75 -2 -2.85 -2.05 -0.20 -0.15 7.75 -10.25 10.45 -13.30 l1.80 -2.05 1.95 1.75 c3.90 3.55 11.85 8.15 17.80 10.40 13.30 4.95 28.70 4.95 38.55 -0.05 2.45 -1.30 6.15 -4.65 7.65 -7 3.50 -5.60 3.70 -17 0.35 -21 -0.35 -0.40 -0.65 -0.90 -0.65 -1.05 0 -0.60 -3.85 -4.25 -6.50 -6.20 -5.30 -3.85 -12.05 -7.45 -22.75 -12.10 -7.50 -3.25 -8.70 -3.80 -14.85 -6.90 -12.35 -6.20 -20.50 -12.85 -24.05 -19.55 -5.40 -10.25 -5.65 -25.20 -0.60 -34.55 2.45 -4.50 3.60 -6.20 5.80 -8.40 2.40 -2.45 9.35 -7.30 11.70 -8.20 0.85 -0.30 2.40 -1 3.50 -1.50 1.15 -0.55 3.25 -1.25 4.75 -1.55 1.50 -0.30 3.65 -0.75 4.75 -1 3.70 -0.85 15.75 -1.10 20.50 -0.50 10 1.35 16.40 3.15 23.95 6.70 6.05 2.90 12.80 7.35 12.80 8.45 0 0.40 -9.05 12.50 -10.50 14.05 -0.80 0.85 -0.95 0.80 -3.85 -1.30 -4.65 -3.45 -11.95 -7.15 -16.90 -8.60 -5 -1.45 -14.80 -2.45 -19.50 -1.95 -10.95 1.10 -17.75 5.45 -20.10 12.95 -1 3.15 -0.80 8.80 0.40 11.95 1.90 5.10 8.10 10.20 19.35 15.80 5.05 2.55 11.30 5.50 12.10 5.75 2.20 0.65 17.35 8.30 21.95 11 4 2.40 12.60 9.30 13 10.45 0.10 0.30 0.80 1.35 1.55 2.30 2.05 2.65 3.95 6.65 5.10 10.90 1.45 5.25 1.55 16.70 0.20 21.85 -4.70 18.15 -21.60 29.45 -45.75 30.60 -3.45 0.15 -6.40 0.15 -6.55 0.05z"/>
  <path d="M292.75 810.30 c-8.40 -1.40 -13.65 -3.30 -19.60 -7.10 -3.45 -2.20 -10.05 -8.80 -10.45 -10.50 -0.15 -0.65 -0.50 -1.20 -0.80 -1.20 -0.70 0 -3.20 -5.75 -4.65 -10.70 -1.55 -5.45 -2.25 -13.95 -1.70 -21.05 1.05 -13.50 7.25 -24.55 17.70 -31.50 6.90 -4.55 11.30 -6.40 20.50 -8.60 8.05 -1.85 21.90 -2.20 30.60 -0.70 3.40 0.55 7.50 1.50 9.15 2.05 1.60 0.55 3.20 1 3.50 1 0.25 0 1.95 0.70 3.65 1.50 1.75 0.85 3.55 1.50 4 1.50 0.45 0 0.95 0.25 1.10 0.50 1 1.65 1.25 -0.50 1.25 -11.60 0 -12.75 -0.35 -15.05 -2.80 -21.40 -1.90 -4.80 -6.55 -9.90 -11.25 -12.25 -5.50 -2.80 -14.35 -4.05 -23.20 -3.25 -11.60 1.05 -20.90 3.90 -31.15 9.60 -2.35 1.30 -2.90 1.15 -3.75 -1.05 -0.75 -1.80 -4.90 -10.75 -5.90 -12.65 -0.95 -1.80 -1.10 -1.65 8.25 -5.85 1.90 -0.85 3.75 -1.55 4.15 -1.55 0.35 0 1.05 -0.20 1.55 -0.45 1.15 -0.65 7.15 -2.35 10.85 -3.05 1.65 -0.30 3.95 -0.80 5.10 -1.05 5.95 -1.30 22.05 -1.85 28.40 -0.95 14.25 2 22.80 5.80 29.65 13.10 3.90 4.20 6.55 8.60 8.15 13.55 2.75 8.60 2.60 5.15 2.80 65.50 l0.20 55.85 -10.55 0 -10.50 0 0 -8.80 0 -8.85 -3.70 3.50 c-9.05 8.65 -18.40 13.60 -29.80 15.85 -5.50 1.10 -15.95 1.40 -20.75 0.60z m24.70 -17.80 c11.15 -2.95 21.60 -9.65 27.60 -17.85 l1.95 -2.60 0 -14.70 0 -14.70 -4.35 -2.05 c-9.25 -4.25 -17.10 -5.75 -30.40 -5.80 -9.80 -0.05 -15.75 0.70 -19.10 2.45 -0.75 0.40 -1.65 0.75 -1.95 0.75 -0.85 0 -5.30 3 -7.60 5.20 -2.90 2.70 -5.10 6.25 -6.55 10.55 -1 2.90 -1.20 4.50 -1.20 9.50 -0.05 11.60 3.60 20.45 10.25 25.20 3.40 2.45 5.30 3.30 9.90 4.55 5.10 1.35 15.25 1.15 21.45 -0.50z"/>
  <path d="M599.50 810.85 c-0.15 -0.10 -1.60 -0.35 -3.30 -0.50 -7.25 -0.70 -16.05 -4 -23.10 -8.70 -11.95 -7.95 -21.15 -21.95 -25.05 -38.25 -6.05 -25.10 -3.80 -53.10 5.80 -71.35 4.45 -8.60 6.60 -11.60 12.10 -16.95 10.55 -10.35 23.60 -15.60 38.65 -15.60 20.65 0 36.70 8.70 47.45 25.75 6.05 9.70 10 23.65 10.85 38.75 0.40 7 0.05 16.05 -0.60 17.85 -0.25 0.55 -8.10 0.65 -47.90 0.65 -26.20 0 -47.95 0 -48.25 0 -1.75 0 0.85 15.05 4.10 23.90 4.25 11.70 12.85 20.80 23.30 24.60 5.65 2.10 15.60 2.45 24.20 0.95 7.20 -1.30 15.75 -4.95 24.60 -10.50 1.70 -1.05 3.30 -1.95 3.55 -1.95 0.25 0 1.30 1.40 2.40 3.15 1.05 1.70 3.10 4.85 4.55 7 1.45 2.15 2.65 4.05 2.65 4.25 0 0.20 -0.60 0.70 -1.40 1.15 -6.95 4.20 -8.85 5.30 -12.10 6.95 -8.35 4.20 -15.10 6.45 -23.25 7.75 -4.60 0.75 -18.80 1.55 -19.25 1.10z m44.15 -85.70 c0.35 -0.55 -0.90 -10.30 -1.80 -14.40 -2.20 -10 -7.80 -20.20 -13.80 -25.20 -3.55 -2.95 -6 -4.35 -10.85 -6.10 -4.35 -1.60 -4.65 -1.65 -12.45 -1.65 -6.95 0 -8.45 0.15 -11.25 1.10 -13.45 4.65 -21.65 14.90 -25.95 32.60 -0.85 3.65 -2.05 11.30 -2.05 13.35 0 0.50 7.70 0.65 38.95 0.65 21.45 0 39.10 -0.15 39.20 -0.35z"/>
  <path d="M891.25 810.70 c-12.75 -1.30 -22.90 -5.90 -29.65 -13.45 -6.75 -7.65 -9.65 -15.40 -10.85 -29 -0.30 -3.90 0.40 -12.10 1.50 -16.50 1.25 -5.15 4.75 -12 8.10 -15.95 4.30 -5.15 12 -10.65 17.65 -12.70 0.95 -0.30 2.20 -0.80 2.75 -1.10 4.75 -2.20 12.85 -3.55 23.50 -3.85 8.10 -0.25 9.70 -0.15 16.25 1.05 7.60 1.35 13.10 2.95 18.45 5.35 1.75 0.80 3.25 1.45 3.35 1.45 0.10 0 0.20 -5.25 0.20 -11.60 0 -9.85 -0.15 -12.30 -1 -15.75 -3.40 -14.30 -11.10 -20.40 -27.30 -21.90 -10.55 -0.90 -27.10 2.85 -38.20 8.75 l-4.55 2.40 -3.20 -6.65 c-3.05 -6.45 -4.55 -10.20 -4.15 -10.45 0.05 -0.05 2.30 -1.05 4.90 -2.20 19.50 -8.60 41.25 -11.15 61.25 -7.25 2.20 0.40 4.20 0.95 4.50 1.20 0.25 0.25 0.95 0.45 1.50 0.45 0.60 0 1.25 0.15 1.45 0.35 0.20 0.25 0.55 0.40 0.70 0.45 1.05 0.10 5.50 2.45 8 4.15 6.50 4.45 11.70 11.45 14.10 18.85 3 9.40 3 9.50 3 67.95 l0 53.25 -10.50 0 -10.50 0 0 -8.80 0 -8.85 -3.85 3.70 c-8.75 8.35 -18.95 13.75 -29.70 15.70 -4.05 0.70 -14.35 1.30 -17.70 0.95z m18.30 -17.50 c2.60 -0.45 4.90 -1 5.20 -1.25 0.25 -0.25 0.90 -0.45 1.40 -0.45 0.90 0 1.65 -0.30 6.85 -2.65 5.85 -2.65 13.30 -8.65 17.45 -14 l2.05 -2.70 0 -14.75 0 -14.70 -3.30 -1.65 c-9.45 -4.70 -18.25 -6.35 -33.45 -6.25 -13.50 0.10 -20.30 2.30 -26.90 8.65 -5.20 4.95 -7.55 11.40 -7.45 20.50 0.05 7.05 1.05 11.50 3.80 16.75 1.85 3.55 2.95 4.85 6.85 8.05 5.40 4.50 16.50 6.30 27.50 4.45z"/>
  <path d="M414.50 712.50 c0 -66.10 0.15 -95.50 0.50 -95.50 0.30 0 4.95 -2.45 10.30 -5.50 5.35 -3 9.85 -5.50 9.95 -5.50 0.15 0 0.25 45.45 0.25 101 l0 101 -10.50 0 -10.50 0 0 -95.50z"/>
  <path d="M484 735.25 l0 -72.75 10.50 0 10.50 0 0 72.75 0 72.75 -10.50 0 -10.50 0 0 -72.75z"/>
  <path d="M702 735.25 l0 -72.75 10.50 0 10.50 0 0.10 8.60 0.15 8.60 2.60 -3.30 c5.45 -6.95 14.75 -12.85 24.40 -15.50 4.55 -1.25 14.60 -1.70 20.50 -0.95 13.30 1.80 21.45 5.55 28.70 13.35 6.30 6.75 8.80 11.30 11.60 20.90 3.20 11 3.55 18.65 3.35 70.55 l-0.15 43 -10.50 0.15 -10.50 0.10 0 -43.10 c0 -48.60 -0.05 -50.25 -1.30 -57.50 -3.30 -19.30 -13 -28.65 -30.80 -29.70 -5.55 -0.35 -10.05 0.15 -14.40 1.55 -2.70 0.90 -7.80 3.80 -10.60 6.10 -6.15 5.05 -10.85 14.95 -12.60 26.50 -0.35 2.40 -0.55 19 -0.55 49.85 l0 46.30 -10.50 0 -10.50 0 0 -72.75z"/>
  <path d="M491.65 636 c-6.70 -1.35 -11.10 -6.40 -11.55 -13.25 -0.30 -4.50 0.45 -7.10 2.90 -10.20 5.65 -7.15 15.40 -7.65 21.90 -1.15 3 3 4.25 6 4.25 10.35 0.05 2.80 -0.20 4 -1.25 6 -2.25 4.40 -5.70 7.10 -10.30 8.15 -2.95 0.65 -3 0.65 -5.95 0.10z"/>
 </g>
</svg>
