<svg class="img-fluid" id="outputsvg" xmlns="http://www.w3.org/2000/svg" style="transform: none; transform-origin: 50% 50%; cursor: move; max-height: none;" width="3840" height="2160" viewBox="0 0 38400 21600"><g id="l13oJt6TGpJA8yaMen6blp4" fill="rgb(0,149,90)" style="transform: none;"><g style="transform: none;"><path id="p2WLOgrVf" d="M700 15230 l0 -660 4183 2 4182 3 3 658 2 657 -4185 0 -4185 0 0 -660z"></path><path id="p1CRKLls3Q" d="M21893 15233 l2 -658 7903 -3 7902 -2 0 660 0 660 -7904 0 -7904 0 1 -657z"></path></g></g><g id="l4Nbr9hW8oOxg03lZgKSeXu" fill="rgb(1,115,198)" style="transform: none;"><g style="transform: none;"><path id="pxYIV6iXN" d="M10440 13490 l0 -2399 2520 -2521 c1386 -1386 2522 -2520 2525 -2520 3 0 1139 1135 2525 2523 l2520 2522 0 2398 0 2397 -660 0 -660 0 0 -2125 0 -2125 -1853 -1855 c-1206 -1208 -1860 -1855 -1872 -1855 -13 0 -671 651 -1875 1855 l-1855 1855 -3 2125 -2 2125 -655 0 -655 0 0 -2400z"></path></g></g><g id="l4Jxv68I1sNSFk4980mS85K" fill="rgb(254,199,44)" style="transform: none;"><g style="transform: none;"><path id="p4Xj888zO" d="M23246 10488 c-22 -78 -31 -104 -38 -112 -4 -6 -8 -17 -8 -25 0 -16 -45 -144 -61 -173 -5 -10 -9 -23 -9 -30 0 -14 -46 -143 -61 -170 -5 -10 -9 -27 -9 -37 0 -11 -4 -23 -10 -26 -5 -3 -10 -15 -10 -25 0 -17 -18 -66 -41 -112 -5 -10 -9 -25 -9 -33 0 -8 -4 -23 -9 -33 -17 -30 -61 -157 -61 -173 0 -9 -9 -24 -19 -33 -15 -14 -24 -15 -39 -7 -11 6 -22 14 -24 19 -1 4 -48 46 -103 92 -55 47 -111 95 -125 107 -14 12 -63 55 -110 94 -47 39 -114 97 -150 129 -36 32 -94 81 -130 111 -36 29 -67 56 -70 59 -3 3 -23 21 -44 40 l-38 35 6 -40 c8 -62 23 -143 41 -230 9 -44 21 -102 25 -130 5 -27 13 -77 19 -110 6 -33 15 -89 21 -123 5 -35 13 -68 16 -74 3 -5 10 -35 15 -66 6 -31 15 -84 21 -117 6 -33 11 -87 12 -120 1 -55 -1 -60 -19 -57 -38 6 -111 20 -195 37 -47 9 -110 21 -140 26 -78 13 -143 24 -240 43 -207 41 -255 49 -346 64 -34 6 -72 15 -84 22 -12 6 -24 9 -27 6 -4 -4 66 -95 97 -126 3 -3 34 -39 70 -80 36 -41 67 -77 70 -80 3 -3 65 -75 137 -160 215 -254 284 -334 300 -347 8 -6 13 -21 11 -34 -2 -17 -15 -25 -53 -36 -27 -8 -58 -19 -67 -24 -10 -5 -26 -9 -36 -9 -10 0 -22 -4 -27 -9 -6 -4 -35 -16 -65 -27 -30 -10 -59 -22 -64 -26 -6 -4 -18 -8 -28 -8 -9 0 -34 -7 -55 -16 -48 -21 -60 -25 -163 -59 -47 -15 -89 -31 -94 -36 -6 -5 -20 -9 -32 -9 -13 0 -26 -4 -29 -10 -3 -5 -15 -10 -26 -10 -10 0 -27 -4 -37 -9 -46 -23 -95 -41 -112 -41 -10 0 -22 -4 -25 -10 -3 -5 -16 -10 -28 -10 -26 -1 -73 -25 -61 -32 5 -2 29 -10 54 -17 25 -7 53 -17 62 -22 10 -5 27 -9 37 -9 11 0 23 -4 26 -10 3 -5 14 -10 24 -10 10 0 32 -7 47 -15 16 -8 37 -15 46 -15 9 0 20 -4 23 -10 3 -5 17 -10 30 -10 13 0 26 -4 29 -9 3 -5 16 -11 28 -14 13 -3 88 -28 168 -57 80 -28 154 -54 165 -57 11 -2 29 -9 40 -13 11 -5 40 -16 65 -24 25 -8 70 -24 100 -35 30 -12 56 -21 57 -21 2 0 3 -8 3 -17 -1 -10 -21 -40 -46 -68 -25 -27 -77 -88 -117 -135 -39 -47 -74 -87 -77 -90 -3 -3 -30 -34 -60 -70 -30 -36 -59 -70 -65 -76 -5 -6 -28 -32 -50 -58 -22 -27 -47 -56 -55 -66 -8 -9 -40 -46 -70 -81 -30 -35 -77 -88 -104 -117 -27 -29 -47 -54 -45 -57 3 -2 22 1 44 7 22 5 65 13 95 18 30 4 91 16 135 25 44 10 105 21 135 26 90 14 160 26 245 44 233 48 376 71 398 62 14 -5 11 -40 -13 -172 -5 -30 -14 -79 -19 -107 -4 -29 -14 -78 -20 -108 -7 -30 -17 -80 -22 -110 -5 -30 -14 -74 -19 -98 -6 -23 -10 -55 -10 -71 0 -17 -5 -42 -10 -57 -6 -15 -15 -55 -21 -88 -5 -34 -14 -86 -20 -116 -5 -30 -12 -73 -16 -94 l-5 -40 73 65 c41 35 76 66 79 69 12 13 565 487 589 505 14 11 35 28 45 37 11 10 25 18 31 18 18 0 35 -23 35 -47 0 -13 4 -31 9 -41 23 -46 41 -95 41 -112 0 -10 5 -22 10 -25 6 -3 10 -16 10 -29 0 -12 3 -26 7 -30 8 -7 21 -43 62 -166 16 -47 34 -98 41 -115 18 -43 25 -62 49 -135 25 -76 91 -278 98 -300 6 -21 33 16 33 46 0 13 4 25 9 28 5 3 11 18 14 33 3 16 28 93 57 173 28 80 54 155 57 168 3 12 9 25 14 28 5 3 9 16 9 29 0 13 4 26 9 29 5 3 11 18 14 33 7 36 51 161 60 170 4 3 7 16 7 28 0 11 4 25 9 30 4 6 16 35 26 65 10 30 21 64 26 75 4 11 9 29 11 40 4 26 38 30 63 8 11 -10 54 -47 95 -83 41 -36 77 -67 80 -70 3 -3 50 -43 105 -90 55 -46 102 -87 105 -90 3 -3 34 -30 70 -60 36 -30 67 -57 70 -60 3 -3 27 -24 55 -45 27 -22 80 -69 118 -105 83 -79 92 -83 83 -39 -4 19 -11 57 -17 84 -13 64 -26 135 -38 206 -5 32 -12 67 -16 79 -4 12 -11 47 -16 79 -6 31 -14 79 -19 106 -4 28 -13 80 -18 117 -5 36 -13 71 -16 76 -3 6 -11 39 -16 74 -16 97 -28 161 -36 186 -7 24 -6 24 57 19 35 -3 90 -10 122 -16 31 -6 81 -15 110 -20 28 -5 88 -17 132 -26 82 -17 148 -29 245 -44 99 -16 183 -32 192 -37 5 -3 33 -10 61 -15 29 -4 75 -12 102 -18 28 -5 51 -7 53 -6 2 2 -13 20 -34 42 -37 37 -360 410 -419 482 -49 60 -147 173 -193 221 -64 68 -57 86 43 123 44 16 92 31 108 34 15 3 30 9 33 14 3 5 15 9 28 9 12 0 26 4 32 9 5 5 64 27 130 50 67 22 134 46 150 52 54 22 145 53 249 86 28 8 59 19 70 23 18 7 45 17 100 35 27 9 15 15 -105 55 -52 17 -104 35 -115 40 -11 5 -40 16 -65 24 -84 29 -120 42 -126 49 -4 4 -16 7 -26 7 -10 0 -26 4 -36 9 -9 5 -42 17 -72 26 -30 10 -59 22 -64 26 -6 5 -20 9 -32 9 -13 0 -26 5 -29 10 -3 6 -16 10 -29 10 -12 0 -26 4 -31 8 -6 4 -35 16 -65 26 -30 10 -64 21 -75 25 -11 5 -40 15 -65 23 -34 11 -46 21 -48 38 -2 12 0 25 5 29 4 3 33 35 63 71 30 36 57 67 60 70 3 3 37 43 76 90 40 47 80 94 91 105 10 11 27 32 38 46 11 14 45 54 76 90 31 35 99 114 150 174 52 61 103 117 114 127 27 22 12 34 -22 19 -28 -13 -80 -24 -183 -41 -79 -13 -185 -33 -370 -71 -25 -5 -72 -13 -105 -18 -33 -5 -98 -16 -145 -26 -47 -9 -105 -20 -130 -25 -25 -4 -52 -10 -60 -14 -9 -3 -24 0 -35 8 -17 12 -18 17 -7 40 7 15 12 44 12 66 0 21 5 42 10 45 6 3 10 21 10 38 0 18 5 48 10 67 11 36 17 71 59 334 6 37 14 73 17 78 3 5 10 35 15 66 9 54 15 86 37 207 5 28 13 65 17 83 8 33 -6 45 -22 20 -4 -7 -42 -42 -83 -78 -41 -35 -77 -67 -80 -70 -3 -3 -45 -39 -95 -80 -49 -41 -99 -84 -111 -95 -23 -22 -25 -24 -159 -135 -49 -41 -92 -77 -95 -80 -21 -24 -162 -140 -169 -140 -14 0 -27 22 -41 65 -18 62 -60 178 -71 197 -5 10 -9 26 -9 36 0 10 -4 22 -8 28 -5 5 -17 36 -27 69 -11 33 -23 64 -27 69 -4 6 -8 20 -8 32 0 13 -4 25 -9 28 -5 3 -11 16 -14 28 -3 13 -24 75 -46 138 -49 134 -88 253 -96 293 -6 28 -23 37 -29 15z"></path></g></g></svg>