<svg class="img-fluid" id="outputsvg" xmlns="http://www.w3.org/2000/svg" style="transform: none; transform-origin: 50% 50%; cursor: move; max-height: none;" width="1080" height="1080" viewBox="0 0 10800 10800"><g id="l4CsqZSiDqIjAu8UeWC7ZHW" fill="rgb(78,119,164)" style="transform: none;"><g style="transform: none;"><path id="pO5eWZKtl" d="M340 7791 l0 -2328 22 -29 c13 -16 34 -38 48 -49 27 -21 4608 -4602 4754 -4753 49 -51 93 -91 98 -90 5 2 1114 1108 2464 2458 l2454 2455 0 2333 0 2332 -635 0 -635 0 -2 -2070 -3 -2070 -1810 -1810 c-1463 -1463 -1814 -1810 -1833 -1808 -15 2 -635 616 -1827 1808 l-1805 1805 0 2072 0 2073 -645 0 -645 0 0 -2329z"></path></g></g></svg>