<?xml version="1.0" encoding="UTF-8"?>
<!DOCTYPE svg PUBLIC "-//W3C//DTD SVG 1.1//EN" "http://www.w3.org/Graphics/SVG/1.1/DTD/svg11.dtd">
<svg xmlns="http://www.w3.org/2000/svg" version="1.1" width="1080px" height="763px" style="shape-rendering:geometricPrecision; text-rendering:geometricPrecision; image-rendering:optimizeQuality; fill-rule:evenodd; clip-rule:evenodd" xmlns:xlink="http://www.w3.org/1999/xlink">
<g><path style="opacity:1" fill="#fec62f" d="M 646.5,5.5 C 647.496,5.41423 648.329,5.74756 649,6.5C 651.98,15.137 654.98,23.8037 658,32.5C 665.074,26.381 672.241,20.381 679.5,14.5C 679.833,15.6667 680.167,16.8333 680.5,18C 678.81,26.6879 677.476,35.1879 676.5,43.5C 684.544,41.42 692.711,39.7534 701,38.5C 702.167,38.8333 703.333,39.1667 704.5,39.5C 698.312,46.5204 692.312,53.6871 686.5,61C 695.061,64.1113 703.727,66.9447 712.5,69.5C 712.67,70.8221 712.337,71.9887 711.5,73C 702.981,75.6163 694.648,78.6163 686.5,82C 692.226,88.6353 698.059,95.1353 704,101.5C 704.617,102.449 704.451,103.282 703.5,104C 694.237,102.296 684.904,100.962 675.5,100C 676.126,100.75 676.626,101.584 677,102.5C 678.17,110.851 679.337,119.185 680.5,127.5C 672.331,122.515 664.831,116.515 658,109.5C 654.855,118.433 652.022,127.433 649.5,136.5C 646.95,136.439 645.45,135.106 645,132.5C 642.64,125.066 639.974,117.733 637,110.5C 630.207,115.625 623.707,121.125 617.5,127C 616.552,127.483 615.552,127.649 614.5,127.5C 615.654,118.215 617.321,109.048 619.5,100C 610.464,100.839 601.464,102.339 592.5,104.5C 591.833,104.167 591.167,103.833 590.5,103.5C 596.391,96.2009 602.391,89.0343 608.5,82C 599.72,78.7044 591.053,75.2044 582.5,71.5C 590.926,67.4627 599.593,63.796 608.5,60.5C 603.187,54.0189 597.687,47.6856 592,41.5C 591.517,40.552 591.351,39.552 591.5,38.5C 600.8,39.5658 609.967,41.2324 619,43.5C 617.541,33.88 616.041,24.2134 614.5,14.5C 622.629,19.4348 630.129,25.4348 637,32.5C 640.027,23.3615 643.193,14.3615 646.5,5.5 Z"/></g>
<g><path style="opacity:1" fill="#0173c6" d="M 437.5,14.5 C 438.239,14.369 438.906,14.5357 439.5,15C 484.883,60.383 530.05,105.55 575,150.5C 575.667,194.167 575.667,237.833 575,281.5C 562.667,282.833 550.333,282.833 538,281.5C 537.667,243.167 537.333,204.833 537,166.5C 503.946,133.446 470.946,100.446 438,67.5C 405,100.5 372,133.5 339,166.5C 338.5,205.165 338.333,243.832 338.5,282.5C 325.92,282.822 313.42,282.489 301,281.5C 300.333,238.167 300.333,194.833 301,151.5C 346.756,105.911 392.256,60.2447 437.5,14.5 Z"/></g>
<g><path style="opacity:1" fill="#01965c" d="M 38.5,244.5 C 114.5,244.5 190.5,244.5 266.5,244.5C 266.822,257.08 266.489,269.58 265.5,282C 189.834,282.5 114.167,282.667 38.5,282.5C 38.5,269.833 38.5,257.167 38.5,244.5 Z"/></g>
<g><path style="opacity:1" fill="#01965d" d="M 609.5,244.5 C 752.5,244.5 895.5,244.5 1038.5,244.5C 1038.82,257.08 1038.49,269.58 1037.5,282C 895.167,282.667 752.833,282.667 610.5,282C 609.511,269.58 609.178,257.08 609.5,244.5 Z"/></g>
<g><path style="opacity:1" fill="#003c7b" d="M 413.5,298.5 C 414.398,299.158 415.398,299.824 416.5,300.5C 415.503,385.126 415.169,469.792 415.5,554.5C 403.655,554.172 391.988,554.505 380.5,555.5C 379.501,470.002 379.167,384.335 379.5,298.5C 390.833,298.5 402.167,298.5 413.5,298.5 Z"/></g>
<g><path style="opacity:1" fill="#003c7a" d="M 458.5,298.5 C 470.838,298.333 483.171,298.5 495.5,299C 496.489,311.42 496.822,323.92 496.5,336.5C 483.833,336.5 471.167,336.5 458.5,336.5C 458.5,323.833 458.5,311.167 458.5,298.5 Z"/></g>
<g><path style="opacity:1" fill="#003b7a" d="M 600.5,366.5 C 643.158,365.011 668.992,385.011 678,426.5C 681.164,443.531 680.997,460.531 677.5,477.5C 640.833,477.5 604.167,477.5 567.5,477.5C 569.654,514.151 588.988,530.318 625.5,526C 639.193,523.41 652.526,519.577 665.5,514.5C 669.555,522.955 673.389,531.621 677,540.5C 677.494,542.134 677.66,543.801 677.5,545.5C 664.303,550.953 650.636,555.119 636.5,558C 565.661,567.496 529.661,536.496 528.5,465C 527.904,439.137 534.404,415.303 548,393.5C 561.914,377.373 579.414,368.373 600.5,366.5 Z M 600.5,400.5 C 621.861,398.37 635.027,407.703 640,428.5C 641.107,434.787 641.607,441.12 641.5,447.5C 616.833,447.5 592.167,447.5 567.5,447.5C 568.229,436.188 571.229,425.521 576.5,415.5C 582.524,407.106 590.524,402.106 600.5,400.5 Z"/></g>
<g><path style="opacity:1" fill="#013c7a" d="M 98.5,366.5 C 119.048,366.465 139.381,368.465 159.5,372.5C 158.329,383.518 156.996,394.518 155.5,405.5C 133.666,401.014 111.666,399.847 89.5,402C 74.2002,405.769 69.3668,414.936 75,429.5C 77.1238,430.622 78.9571,432.122 80.5,434C 98.8877,440.463 117.221,447.13 135.5,454C 163.995,466.433 174.828,487.933 168,518.5C 161.79,537.042 149.29,549.209 130.5,555C 117.677,558.016 104.677,559.849 91.5,560.5C 71.9327,559.854 52.5993,557.354 33.5,553C 33.1667,552.667 32.8333,552.333 32.5,552C 34.4075,541.646 36.4075,531.313 38.5,521C 51.8234,522.332 65.1567,523.999 78.5,526C 91.7115,527.364 104.712,526.364 117.5,523C 130.101,517.535 133.935,508.368 129,495.5C 125.282,491.727 121.116,488.56 116.5,486C 96.2263,480.462 76.5596,473.129 57.5,464C 34.7526,448.546 27.9193,427.712 37,401.5C 45.5718,384.284 59.4051,373.784 78.5,370C 85.3016,368.789 91.9683,367.623 98.5,366.5 Z"/></g>
<g><path style="opacity:1" fill="#003c7a" d="M 258.5,366.5 C 276.924,365.692 294.591,368.859 311.5,376C 330.446,388.175 339.779,405.675 339.5,428.5C 338.167,470.5 338.167,512.5 339.5,554.5C 329.856,555.498 320.19,555.832 310.5,555.5C 310.08,550.645 308.913,545.978 307,541.5C 284.002,558.694 258.502,563.86 230.5,557C 199.482,545.152 186.316,522.652 191,489.5C 196.418,468.416 209.585,454.916 230.5,449C 253.814,442.699 277.314,441.866 301,446.5C 302.011,437.037 301.344,427.704 299,418.5C 295.968,409.467 289.801,403.967 280.5,402C 257.175,399.346 234.341,401.513 212,408.5C 208.436,397.802 205.936,386.802 204.5,375.5C 222.47,371.555 240.47,368.555 258.5,366.5 Z M 255.5,472.5 C 270.848,472.352 286.181,472.686 301.5,473.5C 301.833,487.516 301.499,501.516 300.5,515.5C 283.402,527.286 264.736,530.786 244.5,526C 230.805,518.423 225.972,506.923 230,491.5C 232.188,484.956 236.354,480.123 242.5,477C 246.98,475.564 251.313,474.064 255.5,472.5 Z"/></g>
<g><path style="opacity:1" fill="#003b7b" d="M 796.5,366.5 C 811.341,366.061 825.341,369.227 838.5,376C 851.546,385.582 859.379,398.415 862,414.5C 862.5,461.499 862.667,508.499 862.5,555.5C 849.833,555.5 837.167,555.5 824.5,555.5C 824.97,509.467 824.47,463.467 823,417.5C 817.4,405.191 807.733,399.524 794,400.5C 778.183,400.865 763.85,405.532 751,414.5C 750.5,461.499 750.333,508.499 750.5,555.5C 738.167,555.5 725.833,555.5 713.5,555.5C 713.5,493.833 713.5,432.167 713.5,370.5C 722.506,370.334 731.506,370.5 740.5,371C 742.062,375.726 743.395,380.559 744.5,385.5C 760.31,374.788 777.643,368.454 796.5,366.5 Z"/></g>
<g><path style="opacity:1" fill="#013c7a" d="M 957.5,366.5 C 973.561,365.966 989.228,368.132 1004.5,373C 1025.86,382.398 1037.03,398.898 1038,422.5C 1038.5,466.832 1038.67,511.165 1038.5,555.5C 1028.83,555.5 1019.17,555.5 1009.5,555.5C 1009.09,551.124 1008.42,546.79 1007.5,542.5C 1001.41,545.381 995.407,548.548 989.5,552C 964.255,563.255 939.255,562.588 914.5,550C 891.792,533.275 884.292,511.109 892,483.5C 898.666,465.736 911.166,454.236 929.5,449C 952.899,443.023 976.565,441.856 1000.5,445.5C 1001.9,433.573 1000.07,422.24 995,411.5C 986.315,402.509 975.648,398.843 963,400.5C 945.301,401.109 927.968,403.775 911,408.5C 908.078,398.331 905.578,387.997 903.5,377.5C 903.709,376.914 904.043,376.414 904.5,376C 922.045,371.474 939.711,368.307 957.5,366.5 Z M 954.5,472.5 C 969.848,472.352 985.181,472.686 1000.5,473.5C 1000.83,487.516 1000.5,501.516 999.5,515.5C 984.742,525.687 968.409,529.854 950.5,528C 932.24,522.992 925.073,511.158 929,492.5C 930.91,486.513 934.41,481.68 939.5,478C 944.598,476.104 949.598,474.27 954.5,472.5 Z"/></g>
<g><path style="opacity:1" fill="#003c7a" d="M 458.5,370.5 C 471.08,370.178 483.58,370.511 496,371.5C 496.5,432.832 496.667,494.166 496.5,555.5C 483.833,555.5 471.167,555.5 458.5,555.5C 458.5,493.833 458.5,432.167 458.5,370.5 Z"/></g>
<g><path style="opacity:0.11" fill="#053174" d="M 413.5,298.5 C 414.833,298.5 416.167,298.5 417.5,298.5C 417.5,384.167 417.5,469.833 417.5,555.5C 405.167,555.5 392.833,555.5 380.5,555.5C 391.988,554.505 403.655,554.172 415.5,554.5C 415.169,469.792 415.503,385.126 416.5,300.5C 415.398,299.824 414.398,299.158 413.5,298.5 Z"/></g>
<g><path style="opacity:1" fill="#023b79" d="M 547.5,607.5 C 552.5,607.5 557.5,607.5 562.5,607.5C 562.5,616.833 562.5,626.167 562.5,635.5C 571.5,635.5 580.5,635.5 589.5,635.5C 589.5,640.167 589.5,644.833 589.5,649.5C 580.5,649.5 571.5,649.5 562.5,649.5C 562.333,672.169 562.5,694.836 563,717.5C 565.183,721.241 568.516,722.907 573,722.5C 578.289,721.942 583.455,720.942 588.5,719.5C 589.109,723.436 590.109,727.269 591.5,731C 591.167,731.833 590.833,732.667 590.5,733.5C 579.651,738.015 568.651,738.515 557.5,735C 550.5,730.84 546.667,724.673 546,716.5C 545.5,694.169 545.333,671.836 545.5,649.5C 540.833,649.5 536.167,649.5 531.5,649.5C 531.5,645.167 531.5,640.833 531.5,636.5C 536.5,636.5 541.5,636.5 546.5,636.5C 546.307,626.806 546.64,617.139 547.5,607.5 Z"/></g>
<g><path style="opacity:1" fill="#023977" d="M 472.5,633.5 C 483.068,632.766 493.401,633.932 503.5,637C 513.884,642.732 519.384,651.565 520,663.5C 520.667,687.167 520.667,710.833 520,734.5C 515.599,735.467 511.099,735.8 506.5,735.5C 506.067,732.834 505.567,730.168 505,727.5C 488.693,738.898 471.527,740.398 453.5,732C 440.102,719.901 437.436,705.734 445.5,689.5C 451.789,681.353 460.123,676.853 470.5,676C 481.522,675.287 492.522,675.453 503.5,676.5C 507.02,657.703 499.353,648.369 480.5,648.5C 470.689,648.96 461.023,650.293 451.5,652.5C 451.009,648.378 450.009,644.378 448.5,640.5C 448.709,639.914 449.043,639.414 449.5,639C 457.198,636.746 464.865,634.912 472.5,633.5 Z M 476.5,688.5 C 485.439,688.436 494.273,689.103 503,690.5C 503.667,698.5 503.667,706.5 503,714.5C 492.661,722.293 481.161,724.793 468.5,722C 458.904,717.407 455.737,709.907 459,699.5C 460.105,696.063 462.272,693.563 465.5,692C 469.333,690.966 472.999,689.8 476.5,688.5 Z"/></g>
<g><path style="opacity:1" fill="#013a79" d="M 386.5,607.5 C 391.5,607.5 396.5,607.5 401.5,607.5C 401.5,616.833 401.5,626.167 401.5,635.5C 410.833,635.5 420.167,635.5 429.5,635.5C 429.5,640.167 429.5,644.833 429.5,649.5C 420.167,649.5 410.833,649.5 401.5,649.5C 401.333,671.503 401.5,693.503 402,715.5C 405.097,722.132 410.264,724.299 417.5,722C 420.393,721.369 423.226,720.536 426,719.5C 427.477,720.444 428.477,721.777 429,723.5C 429.532,726.264 430.366,728.93 431.5,731.5C 429.997,733.422 427.997,734.588 425.5,735C 414.513,738.882 403.847,738.215 393.5,733C 389.855,729.547 387.355,725.38 386,720.5C 385.5,696.836 385.333,673.169 385.5,649.5C 380.5,649.5 375.5,649.5 370.5,649.5C 370.203,645.233 370.536,641.066 371.5,637C 376.155,636.501 380.821,636.334 385.5,636.5C 385.958,626.839 386.291,617.172 386.5,607.5 Z"/></g>
<g><path style="opacity:0.997" fill="#013b79" d="M 230.5,633.5 C 254.604,630.798 269.437,641.132 275,664.5C 275.5,669 276,673.5 276.5,678C 275.836,682.479 275.502,686.979 275.5,691.5C 254.833,691.5 234.167,691.5 213.5,691.5C 215.23,717.398 228.897,727.231 254.5,721C 259.49,719.173 264.49,717.34 269.5,715.5C 271.484,719.469 273.484,723.469 275.5,727.5C 273.758,729.817 271.424,731.317 268.5,732C 252.695,738.36 236.695,739.027 220.5,734C 207.691,727.844 200.191,717.677 198,703.5C 194.629,685.508 196.629,668.175 204,651.5C 210.602,642.041 219.435,636.041 230.5,633.5 Z M 232.5,648.5 C 245.575,646.769 254.075,652.103 258,664.5C 259.075,668.77 259.575,673.103 259.5,677.5C 244.167,677.5 228.833,677.5 213.5,677.5C 213.624,667.948 216.957,659.782 223.5,653C 226.462,651.15 229.462,649.65 232.5,648.5 Z"/></g>
<g><path style="opacity:1" fill="#013a79" d="M 633.5,633.5 C 664.552,632.217 679.886,647.217 679.5,678.5C 679.351,682.859 679.017,687.192 678.5,691.5C 657.833,691.5 637.167,691.5 616.5,691.5C 617.217,714.39 628.884,724.557 651.5,722C 658.842,720.915 665.842,718.748 672.5,715.5C 675.063,719.169 677.063,723.169 678.5,727.5C 677.024,729.618 675.024,731.118 672.5,732C 621.617,747.317 597.45,728.484 600,675.5C 601.531,662.607 606.698,651.441 615.5,642C 620.954,637.909 626.954,635.076 633.5,633.5 Z M 636.5,648.5 C 645.856,647.039 653.356,650.039 659,657.5C 661.635,663.909 663.135,670.575 663.5,677.5C 647.833,677.5 632.167,677.5 616.5,677.5C 616.695,665.603 621.695,656.437 631.5,650C 633.382,649.802 635.048,649.302 636.5,648.5 Z"/></g>
<g><path style="opacity:1" fill="#013a79" d="M 319.5,633.5 C 331.963,633.073 344.296,634.073 356.5,636.5C 355.994,641.523 355.327,646.523 354.5,651.5C 341.589,648.539 328.589,648.039 315.5,650C 308.547,652.967 306.047,658.133 308,665.5C 309.167,668 311,669.833 313.5,671C 323.202,674.208 332.869,677.541 342.5,681C 362.702,690.32 367.535,704.82 357,724.5C 350.254,732.091 341.754,736.258 331.5,737C 317.622,738.189 303.955,737.022 290.5,733.5C 290.167,732.667 289.833,731.833 289.5,731C 290.511,726.722 291.678,722.555 293,718.5C 304.934,721.677 317.101,722.843 329.5,722C 340.546,721.115 345.712,715.282 345,704.5C 343.923,701.087 341.756,698.587 338.5,697C 327.438,693.152 316.438,689.152 305.5,685C 290.487,676.149 286.654,663.649 294,647.5C 296.167,644 299,641.167 302.5,639C 308.146,636.718 313.813,634.885 319.5,633.5 Z"/></g>
</svg>
